<svg fill="none" xmlns="http://www.w3.org/2000/svg" viewBox="0 0 114 70">
  <path d="M32.44 55.52q0-2.08-.06-4.14a32 32 0 0 0-2.24.06 29 29 0 0 0-2.04.16q.1-.37.1-.64 0-.23-.1-.62l2.58.08a163 163 0 0 0 7.74-.08q-.1.4-.1.64 0 .26.1.62a14 14 0 0 0-2.06-.16q-.57-.04-1.14-.04-.57-.02-1.08-.02a142 142 0 0 0-.06 4.14v3.44a83 83 0 0 0 .16 5.12 11 11 0 0 0-1.96 0 148 148 0 0 0 .16-5.12zm8.84 3.84q0 .84.14 1.62.16.77.52 1.4.36.6.96.96t1.48.36 1.48-.36.96-.96q.35-.62.5-1.4a8 8 0 0 0 0-3.24q-.15-.78-.5-1.38a3 3 0 0 0-.96-.98q-.6-.36-1.48-.36t-1.48.36-.96.98q-.36.6-.52 1.38-.15.78-.14 1.62m-1.76 0q0-1.37.42-2.3a4.3 4.3 0 0 1 2.7-2.4 5.7 5.7 0 0 1 3.48 0 4.3 4.3 0 0 1 2.68 2.4q.44.93.44 2.3 0 1.35-.44 2.32a4 4 0 0 1-1.12 1.54q-.7.58-1.56.82a6.5 6.5 0 0 1-3.48 0 4.2 4.2 0 0 1-2.7-2.36 6 6 0 0 1-.42-2.32m13.71 1.04q0-.69-.02-1.48a61 61 0 0 0-.14-4.34q.56.1.9.1.35 0 .9-.1a15 15 0 0 0-.16 1.96h.04a3.8 3.8 0 0 1 2.06-1.94 3.96 3.96 0 0 1 4.12.96q.59.6.92 1.54.36.91.36 2.2 0 1.28-.38 2.22a5 5 0 0 1-1 1.56q-.6.62-1.38.92-.78.28-1.56.28a3.2 3.2 0 0 1-3.14-1.9h-.04v2.68l.08 3.06.08 1.22q-.55-.1-.9-.1t-.9.1q.05-.5.06-1.22a47 47 0 0 0 .08-3.06q.02-.78.02-1.42zm7.22-1.12q0-1.2-.26-1.98a3 3 0 0 0-.64-1.24 2 2 0 0 0-.88-.66 2.9 2.9 0 0 0-2.36.16q-.56.33-.92.92a4 4 0 0 0-.52 1.34q-.16.75-.16 1.62 0 4.16 2.92 4.16a2.3 2.3 0 0 0 2.12-1.24q.36-.6.52-1.38.18-.8.18-1.7m6.35-8.18q0-.42.3-.72t.72-.3.72.3.3.72-.3.72-.72.3a1 1 0 0 1-.72-.3 1 1 0 0 1-.3-.72m.28 7.22a46 46 0 0 0-.16-3.74q.57.1.9.1.35 0 .9-.1a25 25 0 0 0-.16 3.74v2.08l.02 1.9q.05.97.14 1.78a10 10 0 0 0-1.8 0q.1-.8.12-1.78.04-1 .04-1.9zm6.37 1.04q0-1.3.44-2.24a4.5 4.5 0 0 1 2.78-2.44q.92-.3 1.88-.3 1.1 0 1.96.28.88.25 1.26.6a7 7 0 0 0-.44 1.32h-.16q-.14-.27-.38-.52a3 3 0 0 0-.58-.5 3 3 0 0 0-.72-.38q-.4-.16-.88-.16-.9 0-1.56.34-.64.31-1.06.9a4 4 0 0 0-.6 1.38 8 8 0 0 0-.18 1.7q0 2.06.88 3.12.89 1.04 2.58 1.04a3.5 3.5 0 0 0 1.64-.4 5 5 0 0 0 1.36-1.02l.1.06q-.1.48-.12.98a5.5 5.5 0 0 1-3.34 1.16 7 7 0 0 1-1.74-.24 4 4 0 0 1-1.56-.84q-.7-.6-1.14-1.54a6 6 0 0 1-.42-2.3m12.58 2.86q.1.2.3.44.22.24.5.46.3.2.66.34a2.3 2.3 0 0 0 1.52.02q.36-.12.62-.34.28-.23.44-.56t.16-.78q0-.63-.36-.94-.34-.34-.86-.54a8 8 0 0 0-1.14-.38q-.62-.17-1.14-.44a3 3 0 0 1-.88-.78 2.3 2.3 0 0 1-.34-1.32q0-.66.22-1.2a2.6 2.6 0 0 1 1.68-1.58q.62-.24 1.42-.24.74 0 1.24.2l.98.36q-.15.3-.3.74t-.18.68h-.24a2 2 0 0 0-.62-.86q-.46-.38-1.14-.38-.3 0-.6.1-.3.09-.54.3a1.6 1.6 0 0 0-.56 1.28q0 .63.34 1 .36.33.88.54.52.2 1.14.36.62.13 1.14.42.52.26.86.74.36.48.36 1.32 0 .57-.26 1.14-.24.55-.72 1.02-.45.43-1.12.7-.66.24-1.5.24-.92 0-1.54-.18a5 5 0 0 1-1.04-.42 5 5 0 0 0 .38-1.46z" fill="#ea6770"/>
  <g clip-path="url(#a)" fill-rule="evenodd" clip-rule="evenodd">
    <path d="m53.66 12.78.19-.06c.95.12 1.7-.35 2.5-.68.34-.14.66-.38 1.03-.4.34 0-.01-.2.1-.22.92.02 1.81.22 2.72.29.3.38.37.76 0 1.12q-.21.23-.2.54c-.04.25.03.53-.13.76-.5.08-.61-.36-.86-.6-.22-.52-.64-.5-1.08-.4-.6.29-1.34.35-1.67 1.02-.73.03-1.35.17-1.94.69-.43.38-1 .66-1.5 1a18 18 0 0 0-2.8 2.43q-.13.15-.18.34c-.08.27-.24.43-.57.28-.46-.54-.04-1.06-.02-1.6 0-.25.18-.46.2-.7q.2-.43.57-.72.66-.53 1.03-1.27.26-.34.63-.57c.62-.47 1.34-.8 1.98-1.25" fill="#ec7189"/>
    <path d="M55.26 25.42c.06-.21 0-.45.16-.64q.48.08.35.56c-.07-.98.54-2.07.44-3.3-.07-.86.23-1.7.31-2.55.3-.5.81-.92.63-1.6l-.04-.19q-.03-.25.15-.44a.3.3 0 0 1 .19-.04c.17.03.32-.04.47-.1.58-.24.85-.14 1.06.36.18.42-.05.79-.58.95-.16.04-.33.02-.49.13-.06.25.17.4.3.56q.59.63 0 1.19c-.28.26-.32.5-.06.8q.18.25.12.52c-.07.47-.06.95-.31 1.37.63.49-.15.85-.07 1.28l-.15.8c-.43 1.76-1.6 3.15-2.5 4.68-.15.24-.34.5-.73.34-.38-.27-.33-.6-.23-.97q.4-1.44.86-2.86c.09-.27.19-.55.12-.85" fill="#ec6f88"/>
    <path d="M74.37 12.88c-.75.46-1.58.8-2.4 1.15q-.33.14-.66.02l-.05-.07c-.07-.32-.75-.33-.5-.82-.18.01-.34.08-.55.08.2.3.69.2.7.58q0 .35-.38.5c-.5-.12-1-.04-1.48 0-.98.08-1.92-.16-2.86-.38-.88-.2-1.8-.15-2.64-.54-.49-.14-.97-.33-1.12.4-.06.26-.31.48-.65.25-.39-.25-.37-.68-.1-.86.49-.31.49-.69.42-1.15-.06-.37.1-.54.47-.26.14.1.2-.06.3-.02q.16.02.27.12c.15.19.32.31.6.33q1.05.04 2.12.18a13 13 0 0 0 3.54-.2c1.2-.19 2.46-.22 3.57-.77l.09-.06.17-.08q.5-.23 1.02-.37c.37-.08.65 0 .73.4 0 .28-.03.56.05.84q.03.14-.07.26c-.15.21-.43.27-.6.47" fill="#ec728b"/>
    <path d="M62.88 11.84c-.24.26-.41-.13-.64-.1q0 .3.05.6c.08.38.19.75-.41.84-.36.05.01.44-.22.57.1.1.19.25.3.27.2.05.33-.13.34-.27.04-.78.56-.67 1.1-.53.03.28-.23.1-.33.18-.68.09-.39.58-.32.88q.16.61.73 1.05.06.08.08.19c-.01.32-.22.48-.52.57-.45-.02-.49-.44-.73-.67-.37-.37-.8-.7-.98-1.22-.07-.19-.25-.23-.4-.12-.73.54-1.32 1.16-1.46 2.08-.21 1.4-.57 2.78-.67 4.2-.01.17-.01.33.1.45.28.3.2.66.05.89-.5.74-.59 1.61-.88 2.42q-.04.14-.18.16c-.16-.29.04-.5.14-.74.13-.3.12-.55-.45-.34.61-.5.67-1.31.47-1.7-.4-.74-.13-1.1.24-1.66.3-.42-.3-.77-.56-1.04-.43-.43-.08-.41.18-.47q.27-.06.56-.07c.27-.04.38-.27.43-.47.06-.26-.17-.47-.34-.65-.21-.22-.36.12-.54.1-.2 0-.36.58-.57.02-.1-.19-.01-.32.14-.43.12-.07.27-.09.37-.18.25-.23.84.1.89-.43.02-.34.22-.65.14-1 .26-.36.58-.68.81-1.05.04-.28-.07-.58.07-.85q.1-.05.2-.02c.43.15.85.2 1.12-.2.28-.43.08-.85-.2-1.23-.15-.2-.38-.34-.4-.61.22-.28.54-.04.8-.13.43.2.91.15 1.36.29q.1.05.17.13.08.16-.04.3" fill="#ec6f88"/>
    <path d="M69.95 20.43c.14.2.39.39.27.68q-.08.4-.54.37c.17.1.36.16.43.35-.28.98-.7 1.15-1.67.67a1 1 0 0 0-.34-.09c-.19-.02-.4-.02-.5-.2-.13-.28.23-.29.29-.49-.22.22-.53.14-.8.27-.24.12-.4-.17-.46-.39-.07-.28-.18-.5-.53-.54-.1-.13-.2-.27-.12-.44q.16-.29.47-.36c.2-.06.22-.17.2-.36-.04-.64.09-.69.77-.34q.1.1.24.14c.15.03.33.13.44-.04.1-.16-.04-.26-.14-.4-.24-.32-.69-.64-.15-1.04.85.32 1.27 1.03 1.73 1.7.1.2.2.39.41.5" fill="#ef8d9d"/>
    <path d="M63.69 35.66q.75-.83 1.46-1.67c1-1.23 1.32-2.71 1.5-4.22.2-1.7.3-3.41.07-5.14-.11-.8-.5-1.55-.56-2.36-.01-.22-.06-.44-.05-.67s.15-.18.3-.14c.26.8.97 1.42 1.11 2.27q-.33.65-.2 1.4c.15 1.03.12 2.07.1 3.11-.12 1.06-.52 2.1-.48 3.15.04.95-.55 1.5-.92 2.2-.4.76-.74 1.59-1.52 2.1-.24.15-.42.43-.78.35-.17-.13-.11-.25-.03-.38" fill="#eb6b86"/>
    <path d="M63.69 35.66c0 .12-.02.24.08.35.13.37-.33.35-.43.58-.1.24-.36.4-.55.6.75.35 1.73.16 3.96-.77a2.5 2.5 0 0 0 1.33-1.27c.56-1.07 1.28-2.08 1.46-3.3.09-.7.56-1.26.74-1.92.3-1.1.3-2.23.39-3.35.02-.26-.04-.53.07-.78.07-.1.14-.2.3-.14.38 2.06-.11 3.98-.84 5.86-.11.3-.24.57-.3.87-.17.79-.31 1.57-.96 2.16q-.26.23-.35.56c-.24 1-1.01 1.48-1.92 1.84-1 .4-1.98.9-3.13.89q-.5 0-.98-.11c-.29-.08-.65-.16-.7-.5-.07-.39.33-.36.55-.48.52-.27.78-.8 1.28-1.1" fill="#eb6784"/>
    <path d="M67.8 18.27c-.25.3-.03.61.16.77.29.26.6.51.28.82-.26.25-.65.06-.92-.19-.1-.1.19-.2.03-.22a1.4 1.4 0 0 1-1.1-.62c.11.57-.13.72-.61.62-.5-.1-.73-.34-.5-.81q.23-.43-.2-.7-.15-.09-.25.28a.3.3 0 0 1-.15.11c-.21-.17-.28-.48-.58-.59.05-.16.2-.32-.04-.48-.04-.02.07-.14.15-.18.4-.02.65.39 1.07.33-.04-.22.17-.56-.37-.5-.2.02-.33-.17-.37-.36-.05-.22.08-.32.3-.37 1.19.48 2.34 1 3.1 2.09" fill="#f2a1ad"/>
    <path d="m67.04 8.3.16-.08c.67.12 1.3-.02 1.88-.31.72-.2 1.5-.17 2.21-.4.32.27.16.48-.1.6a.7.7 0 0 0-.39.46c-.28.12-.53-.23-.88-.02.32.09.68-.04.86.27-.08.27-.35.26-.56.32a8 8 0 0 1-2.4.36q-.1-.14 0-.26.5-.21 1.02-.39-.5.16-.97.36c-.32.28-.85.23-1.1.61q-.15.15-.34.1c-.3-.13-.64.06-.94-.11-.2-.14-.37-.3-.36-.57.02-.18.2-.25.29-.4h-.01c.6-.03 1.1-.32 1.63-.54" fill="#ed7d92"/>
    <path d="M55.26 25.42c.45.55.06 1.08-.12 1.53-.32.8-.37 1.68-.76 2.46-.14.27.12.45.2.67a.3.3 0 0 1-.22.17 2.8 2.8 0 0 1-1.7-.65c-.5-.36-.52-.67.03-.93.25-.12.56-.14.55-.5a.2.2 0 0 1 .14-.1c.3 0 .78.23.54-.4.16-.4.28-.78.7-1.07.3-.2.37-.67.45-1.05z" fill="#ef8899"/>
    <path d="m54.41 30.16.17-.08c.73-.36.99-1.06 1.3-1.7.11-.27.15-.53.48-.68.17-.08.33-.35.33-.54 0-.39.18-.59.47-.81.24-.18.42-.46.34-.82-.04-.19-.08-.42.24-.45.06.44-.1.82-.27 1.21-.9 2.08-2.36 3.82-3.55 5.73-.41.66-1.14 1-1.88 1.28-.19-.06-.15-.19-.12-.32.33-.39.77-.68 1.14-1.03q.58-.56.93-1.28.14-.31.42-.5" fill="#eb6784"/>
    <path d="M65.41 8.85c.03.18-.1.28-.2.4-1.14.87-2.5 1.38-3.8 1.97-.25.12-.55-.07-.8.1.01.25-.03.46-.37.45-.81.3-1.56-.24-2.36-.25-.13 0-.26-.1-.4 0-.5.4-1.18.46-1.75.73-.15.07-.33 0-.43-.16.88-.48 1.75-.91 2.86-.7.4.08.88.09 1.25-.04.87-.3 1.78-.47 2.65-.81 1.19-.48 2.1-1.37 3.35-1.7" fill="#eb6582"/>
    <path d="M64.96 17.87c.5-.02.53.31.45.6-.21.77-.23.76.67.86.13-.16-.08-.21-.13-.31q-.1-.22.1-.35a.4.4 0 0 1 .4-.02c.29.15.1.66.58.67.29 0 .6-.08.85.16-.14.25-.43 0-.56.19-.17-.12-.34-.33-.55-.16s.03.33.12.46c.18.3.1.39-.24.41-.2.02-.38.14-.57.22-.33-.02-.28-.3-.38-.48-.13-.24-.16-.52-.45-.67-.53-.21-.56-.7-.7-1.12q0-.08.04-.15c.17-.05.19-.27.37-.31" fill="#f197a5"/>
    <path d="m63.07 13.4.33-.18c1.43.4 2.9.56 4.36.87.93.2 1.93.06 2.9.06.19-.13.33-.39.63-.13l.01.04c-.62.64-1.5.39-2.25.4-2.04.04-4.04-.37-5.98-1.06" fill="#eb6b86"/>
    <path d="M55.07 25.55q.16.73-.5 1.23c-.29.22-.4.63-.6.95-.02.42-.4.3-.65.4h-.01c-.83.6-1.36 1.52-2.4 1.86-.37.11-.58.43-.89.62-.2.13-.42.29-.68.12-.12-.07-.06-.2.02-.28.94-.64 1.83-1.37 2.84-1.9 1.33-.72 2.1-1.85 2.87-3" fill="#ec6d87"/>
    <path d="m51.99 33.03.05.27q-.86.68-1.96.92c-.38.05-.74.3-1.15.05-.2-.38.17-.54.31-.79q.06-.08.14-.13c.17-.1.35-.01.56 0-.2-.07-.36-.12-.44-.29a.2.2 0 0 1 .02-.18c.41-.22.87-.1 1.3-.1q.55.28 1.17.25" fill="#ec7189"/>
    <path d="M67.8 18.27a13 13 0 0 0-2.12-1.53c-.34-.2-.67-.42-1.08-.47a2 2 0 0 1-1.14-.84v-.05l.02-.05c2.25 1.13 4.59 2.17 6.05 4.32.06.15.06.29-.1.38a6 6 0 0 0-1.64-1.76" fill="#f094a2"/>
    <path d="M56.66 19.46c.03 1.02-.37 1.98-.23 3.05.15 1.12-.58 2.16-.65 3.4-.32-.42.39-.94-.36-1.13.56-1.04.5-2.22.68-3.34l.22-1.24c.08-.26-.14-.66.34-.74" fill="#ec6d87"/>
    <path d="m74.88 12.4.08-.24c.24-.59.43-1.19.29-1.84-.1-.7-.43-1.32-.69-1.96-.2-.51-.72-.55-1.11-.77-.54-.22-1.09.15-1.63-.07q-.16-.08-.12-.26a6 6 0 0 1 2.07.02c1.2.29 1.4 1.3 1.72 2.13.3.74.42 1.54.16 2.36-.11.38-.27.57-.63.68q-.06.03-.1 0z" fill="#eb6784"/>
    <path d="M54.58 21.48q-.81 1.5-2.55 1.8c-.78.14-1.55 0-2.22-.48-.37-.27-.66-.6-.46-1.1.11-.07.18 0 .25.08.65 1.23 2.55 1.48 3.64.48.39-.36.72-.8 1.23-1.05q.1 0 .18.1 0 .09-.07.18" fill="#eb6481"/>
    <path d="M49.36 30.45c.2.54.4.03.6.03.97.05 1.2.29.9.92-.33.12-.7.18-.8.6 0 .07-.15.05-.24 0-.33-.36-.84-.39-1.23-.65-.14-.11-.38-.16-.35-.4l.22-.11c.07-.12.33.21.3-.11z" fill="#ee8497"/>
    <path d="M49.54 16.61c.22.29-.2.42-.15.67-.09.4-.34.75-.29 1.17-.04.37-.28.7-.2 1.1.06.54.43 1.1 0 1.64-.74-1.14-.64-2.29-.19-3.44.15-.36.37-.7.56-1.05q.08-.16.26-.09" fill="#eb6985"/>
    <path d="M48.24 30.94c.08.16.33.12.36.31a5 5 0 0 1-3.36.48c-.4-.14-.68.17-1.04.2-.28-.02-.32-.2-.32-.42.55-.36 1.2-.24 1.81-.24a9 9 0 0 0 2.55-.33" fill="#ec7189"/>
    <path d="m49.5 21.83-.15-.12-.2-.2c-.1-.46-.05-.93-.14-1.38-.04-.17.04-.33.21-.38.22-.07.2.1.22.23.4-.12.52.21.74.4q.18.22.35.46c0 .7-.39 1.08-1.02.99" fill="#ef8f9e"/>
    <path d="M55.3 12.1c.8 0 1.44-.44 2.19-.58.07.05.3.07.05.18q-1.24.56-2.5 1.08c-.4.16-.8.2-1.2-.06z" fill="#ec768d"/>
    <path d="M48.93 34.22c.39.22.76-.12 1.15 0-.9.42-1.84.37-2.79.03-1.2-.43-2.48-.7-3.4-1.67q-.03-.1.07-.16c.38-.09.57.18.8.38.17.16.4.2.61.27.25.11.51.2.73.37q1.38.51 2.83.78" fill="#ec728b"/>
    <path d="M50.1 20.47c-.1-.09-.24-.16-.31-.27-.14-.2-.42-.17-.56-.33-.2.19-.15.42-.04.62.2.36-.1.67-.04 1.01-.24 0-.25-.15-.24-.31.09-.6-.11-1.16-.18-1.73.1-.22.1-.53.48-.54.51.08.6.62.98.85.22.16.2.36.16.57q-.08.14-.24.13" fill="#ed788e"/>
    <path d="m71.03 25.66-.16.1c-.38-.18-.18-.53-.27-.79-.08-1.03-.44-2.03-.5-3.07q.05-.3.37-.23c.39 1.31.54 2.64.56 3.99" fill="#ec6f88"/>
    <path d="m54.58 21.49.03-.18a.3.3 0 0 1 .01-.38c.63-.84 1.01-1.83 1.82-2.55.27-.18.26-.66.75-.6.2.75-.3 1.08-.89 1.37-.62.74-.85 1.75-1.72 2.33" fill="#ec6d87"/>
    <path d="m71.7 7.27.13.15c-.1.26-.28.25-.5.16-.7.41-1.51.33-2.29.4-.15.01-.16-.05-.11-.16.9-.28 1.84-.39 2.77-.55" fill="#ec6f88"/>
    <path d="M64.1 17.11c-.13.19.2.49-.14.63-.66-.7-1.32-1.4-1.65-2.32.37.05.4.48.71.58q.6.51 1.08 1.11" fill="#f3abb4"/>
    <path d="m49.54 16.6-.27.1.88-1.45q.31-.2.55-.5c.13-.13.26-.27.47-.09a3 3 0 0 1-1.15 1.41q-.31.23-.49.54" fill="#ee8194"/>
    <path d="M44.69 32.93c-.27-.13-.4-.48-.76-.47-.63-.36-.65-.5-.1-.87q0-.06.05-.08c.1.12.12.3.32.34.2.15.5.08.65.32q.05.07.07.16c.03.15.14.28.14.43 0 .26-.11.36-.37.17" fill="#ef8f9e"/>
    <path d="M56.3 19.15c.35-.42.86-.75.9-1.36.48.27.13.61.05.88-.08.3-.26.6-.59.78-.32.16-.2.51-.34.75-.17-.35.26-.7-.01-1.05" fill="#ed7a8f"/>
    <path d="M51.17 14.66c-.48 0-.53.62-1.02.6a6 6 0 0 1 1.88-1.8c.1.31-.16.47-.27.7z" fill="#f2a3ae"/>
    <path d="M51.76 14.16c0-.26.12-.48.27-.7q.77-.41 1.63-.68c-.17.49-.73.54-1.07.85q-.38.29-.83.53" fill="#ef8d9d"/>
    <path d="m68.93 7.82.11.16c-.54.5-1.14.65-1.84.24a5 5 0 0 1 1.73-.4" fill="#ec6f88"/>
    <path d="M65.25 19.45c.66.15.48.81.83 1.15l.06.42c.14.14.6.11.3.49q-.2-.06-.33.1z" fill="#ed788e"/>
    <path d="M43.82 31.59c-.33.32-.2.6.11.87l-.04.12q-.19-.08-.38-.17c-.23-.14-.58-.25-.46-.59.13-.33.45-.32.77-.23" fill="#f197a5"/>
    <path d="M67.04 8.3c-.42.5-.95.71-1.63.54a3 3 0 0 1 1.63-.54" fill="#eb6784"/>
    <path d="m70.47 21.67-.3.2q-.05.05-.1.02-.04-.02-.04-.05c-.21-.27-.67-.22-.83-.63.33-.16.83.67 1.02-.1.24.13.2.36.25.56" fill="#ed7b91"/>
    <path d="m69.43 20.03.1-.38q.3.34.42.78-.41-.02-.52-.4" fill="#f3acb6"/>
    <path d="M48.77 30.73c.13.07.33.04.43.27-.3.15-.51-.02-.74-.16.02-.24.2-.09.3-.11" fill="#ec6f88"/>
    <path d="m74.88 12.4.14.05c-.13.25-.33.43-.66.43.03-.3.27-.4.52-.47" fill="#ec6d87"/>
    <path d="M50.13 19.83c-.1.18-.21.14-.26-.03-.09-.33-.33-.56-.6-.77l-.03-.07.06-.05c.13-.06.32-.09.36-.18.46-1.07 1.38-1.72 2.28-2.43q.59-.45 1.17-.88a9 9 0 0 1 2.51-1.48c.3-.1.43.14.65.16l.04.1c-.08.26-.32.37-.55.46-1.42.6-2.65 1.48-3.9 2.32a7 7 0 0 0-1.64 1.7c-.28.36.16.79-.1 1.15" fill="#ec6f88"/>
    <path d="M59.8 14.17c.06.52-.4.73-.68 1.04-.4.64-.73 1.33-1.45 1.72-.17.05-.18.2-.22.33h-.12c-.21.32-.48.27-.75.07-.28-.2-.1-.37.05-.54.08-.1.02-.26.13-.36.6-.08.99-.34.99-.98 0-.2.13-.38.29-.5.21-.17.33-.28.17-.6-.2-.4.24-.82.9-.93z" fill="#ef899b"/>
    <path d="m60.24 11.77.38-.44c.33.27.7.48.8.96.08.44.17.85-.26 1.13-.43.3-.88.21-1.3-.1-.03-.15-.14-.37 0-.43.56-.25.4-.7.38-1.12" fill="#ee8698"/>
    <path d="M59.1 13.42c-.18.4-1.33.4-.51 1.22.12.13-.02.23-.17.27-.42.11-.53.45-.57.8-.07.71-.27.86-1.06.74l-.06-.08c.17-.65.6-1.18.87-1.78.07-.15.2-.29.22-.47.03-.2.21-.34.26-.53-.23-.06-.45.18-.67-.03-.04-.35.33-.36.47-.56.5-.13 1.03-.3 1.22.42" fill="#ed7b91"/>
    <path d="M57.88 13c-.03.27-.38.3-.44.56-.21.46-.56.71-1.13.6l-.04-.05c-.12-.52.33-.61.65-.77.3-.15.64-.23.96-.34M48.95 18.55c.16-.42.06-.93.44-1.27.02.54-.3 1.07-.09 1.63-.38.1-.26-.22-.35-.36" fill="#ec6f88"/>
    <path d="M56.79 16.45c.02.15.07.29.06.43-.01.13-.47.06-.2.32.16.16.43.23.68.07l-.14.52c-.35.1-.31.52-.6.68-.21-.37-.7-.52-.88-.92.16-.54.47-.95 1.06-1.11z" fill="#ed7a8f"/>
    <path d="M73.54 7.46c1.5.47 1.57 1.74 1.87 2.88-.02.18-.2.3-.13.54.06.25-.06.48-.42.42-.08-.34-.32-.33-.58-.25l-1.06.4a6 6 0 0 0-.29-2.12c-.07-.21-.07-.49-.36-.6-.39-.62.04-1.18.97-1.27" fill="#ee8296"/>
    <path d="M63.1 11.96c2.46.48 4.88.43 7.3-.02l2.64-.54c-.2.4-.58.48-1 .54-.71.1-1.41.26-2.12.37q-.65.1-1.3.15c-.4.02-.8.01-1.15.24q-.1.06-.2.04c-1.2-.4-2.45-.14-3.67-.37-.22-.04-.55-.03-.5-.4" fill="#eb6784"/>
    <path d="M71.29 14.02c-.24-.07-.42.1-.63.13-.01-.2.41-.6-.28-.52-.28.03-.46-.22-.45-.44.02-.29.25-.23.48-.13.26.13.42-.4.74-.1-.5.51-.5.52.52.81-.04.2-.29.12-.38.25" fill="#ed7a8f"/>
    <path d="M74.86 11.3c.18-.07.4-.28.3-.36-.56-.48.05-.46.26-.6.2.6-.05 1.14-.18 1.7-.03.13-.16.13-.28.13-.35-.27-.14-.57-.1-.87" fill="#ed788e"/>
    <path d="M73.69 12.5c-.69.45-1.35.4-2.02.28.63-.16 1.19-.7 2.02-.28" fill="#ed7a8f"/>
    <path d="M72.68 8.7c.67.85.78 1.78.54 2.76l-.17-.07c.16-.88-.25-1.7-.4-2.55q-.09-.1.03-.14" fill="#ec6f88"/>
    <path d="M61.41 11.22c1.17-.82 2.51-1.34 3.8-1.97l.32.5c-.06.36-.49.34-.69.56-.66.44-1.27.97-2.06 1.23-.44-.17-1 .14-1.37-.32" fill="#ef8d9d"/>
    <path d="M64.1 17.11c-.51-.24-.93-.55-1.08-1.1.25-.13.43-.3.44-.58.42.24.82.49 1.14.84q-.3.56.34.46c.38-.06.58.02.44.4-.25.63-.44.62-1.28-.02" fill="#f197a5"/>
    <path d="M57.67 16.93c.52-.54.85-1.24 1.45-1.72.19.45-.2.85-.07 1.3.04.14-.13.3-.26.23-.46-.22-.75.14-1.12.19" fill="#ec6f88"/>
    <path d="M62.78 11.54c.68-.45 1.32-.94 2.06-1.28q.11-.03.17.07-.95.76-2.06 1.29z" fill="#ec768d"/>
    <path d="M58.73 21.12c.22.3.04.52-.1.84q-.2-.54.1-.84" fill="#ec6f88"/>
    <path d="m70.03 21.84.15.03c.28 1 .42 2.02.58 3.03-.15.35-.42.28-.68.12-.25-.15-.5-.2-.7 0-.42.4-.84.26-1.28.04-.4-.39-.59-.87-.7-1.38-.1-.45-.45-.78-.67-1.17-.19-.32-.36-.63-.3-1 .12-.28-.27-.29-.3-.48.5-.28.57 0 .63.39.02.18 0 .42.27.5-.03-.55.59.06.57-.24-.03-.4.18-.25.36-.2.15.04.28.14.28.28-.01.24-.23.23-.41.26-.06 0-.1.06-.24.17.74.01 1.28.44 1.94.37.08 0 .23.04.18-.05-.17-.37.36-.38.32-.67" fill="#ee8698"/>
    <path d="M66.73 36.57c-1.18.44-2.29 1.09-3.66.96-.21-.02-.44.04-.54-.2-.12-.3.18-.3.31-.42.31-.3.53-.68.93-.9 1.33-.8 1.78-2.22 2.62-3.36.5-.68.2-1.36.42-2 .27-.8.28-1.65.42-2.48.44.25.3.65.22.95-.17.68.35 1.04.74 1.44.27.27.4-.02.47-.23q.18-.71-.2-1.36c-.32-.56-.2-1.04.21-1.47q.14-.14.32-.04c.54.62.4 1.36.44 2.05.04.75-.1 1.5-.2 2.25q-.14.71-.24 1.44a5.5 5.5 0 0 1-1.64 2.84q-.3.28-.62.53" fill="#ec7189"/>
    <path d="M68.89 27.47c-.64.61-.44 1.25-.05 1.94.2.35.1.79-.03 1.14-.17.47-.45.37-.85.1-.98-.7-.52-1.65-.73-2.48 0-1.06.07-2.12-.13-3.17-.1-.51-.06-.95.3-1.32l.73 1.28a4 4 0 0 1 .9 1.84c.04.23.1.49-.14.67" fill="#ec728b"/>
    <path d="M68.89 27.47c.06-.64-.15-1.21-.48-1.77q-.17-.36-.29-.74c.49.22.9.19 1.3-.19.2-.2.47-.14.67.07.22.24.44.23.67.06l.11.86c.04 1.31-.1 2.6-.31 3.9-.14.81-.74 1.45-.84 2.28-.23-.05-.48-.02-.69-.17.15-1.43.48-2.87-.14-4.3" fill="#ed7f93"/>
    <path d="M69.03 31.77c.25 0 .53-.17.7.17-.2 1.5-1.2 2.64-1.85 3.94-.2.4-.69.57-1.15.7.18-.59.74-.88 1.1-1.31a5 5 0 0 0 1.1-2.98q.03-.26.1-.52" fill="#ed788e"/>
    <path d="M64.96 17.87c-.05.18-.09.38-.37.31.2-.18-.22-.38-.02-.51.12-.08.32.02.4.2" fill="#f3abb4"/>
    <path d="m72.68 8.7-.03.14-.55-.15c-.41-.18-.89.25-1.27-.16-.2-.22-.22-.43.11-.48.32-.05.45-.17.4-.47l.49-.16c.57.1 1.14-.25 1.71.04-.33.15-.65.32-.89.61-.18.23-.25.42.03.63" fill="#ef8b9c"/>
    <path d="M70.83 8.53c.4.2.88-.2 1.27.16-.43.1-.85.22-1.31.14q-.3-.12-.62-.1c-.2.02-.46.21-.61-.1-.05-.1.02-.21.1-.2.28.04.5-.42.8-.06.1.12.23.13.37.15" fill="#ec7189"/>
    <path d="M67.81 9.44c-.32.22-.67.37-1.1.33-.18-.36.12-.32.33-.36.28-.06.5-.29.83-.2zM65 10.33l-.16-.07c.14-.28.5-.29.7-.51.28.14.63-.3.9.1-.47.18-1.01.18-1.43.48M67.87 9.21c.44-.28.85-.66 1.5-.31z" fill="#ec6f88"/>
    <path d="M50.78 31.37c.16-.33.27-.62-.33-.66-.17 0-.33-.15-.5-.23l3.36-2.35c.32.39.03.57-.29.6-.33.02-.56.2-.63.41-.1.34.38.15.48.36s.53.08.5.45c-.01.11.18.2.26.1.33-.4.5.24.78.11-.3.73-.59 1.45-1.29 1.92l-.07-.07c-.12-.24-.34-.2-.55-.18-.4.05-.74-.05-.97-.47 0 .25.39.36.1.58-.73.11-.83.05-.85-.57M53.32 28.13l.66-.4c.08.07.37.04.23.18-.17.17-.15.4-.33.55-.23-.06-.3-.35-.56-.33" fill="#ed7a8f"/>
    <path d="M50.78 31.37c.09.54.5.53.92.49.51-.3.93.2 1.4.19l.02.03c-.3.4-.72.67-1.13.95-.42.46-.77.16-1.13-.13-.27-.26-.54-.5-.94-.56-.18-.03-.3-.13-.22-.33l.07-.06.26-.05c-.19-.72.4-.48.75-.53" fill="#ec748c"/>
    <path d="M45.18 31.54c1.2.42 2.28-.2 3.42-.29.43.04.73.39 1.19.39.17 0 .04.2-.02.3q-.39.1-.76-.04c.82.26.88.4.5 1.09h.01c.1.16 0 .27-.09.4l-.04.11a12 12 0 0 1-3.74-.61c-.33-.12-.68-.24-.8-.61.08-.26.1-.54.33-.74" fill="#ef8f9e"/>
    <path d="M44.84 32.28c.59.42 1.27.6 1.96.74.6.12 1.16.41 1.8.1.21-.1.46.37.8.38.02.35-.47.4-.47.72-1.12.2-2.07-.33-3.04-.74-.03-.29-.05-.3-.51-.27-.24-.07-.54-.01-.7-.28.26.02.38-.07.21-.28-.1-.14-.2-.24-.05-.37" fill="#ee8194"/>
    <path d="M49.52 32.99c-.1-.1-.06-.2 0-.3.18-.32.22-.58-.33-.52-.1 0-.22-.09-.32-.1-.2 0-.36-.04-.3-.25q.07-.26.4-.14c.25.12.53.18.8.27-.03.2.06.24.28.26.42.04.74.25.81.69-.44.1-.9-.08-1.34.09M49.43 33.38c-.13-.17.1-.25.09-.39.15.1.28.24.5.2.15-.01.38-.09.36.17-.01.19-.22.18-.4.15z" fill="#ee8497"/>
    <path d="M49.5 21.83c.38-.28 1.02-.33.95-.99.98.03 1.44-.75 2.1-1.2.28-.18.46-.5.89-.36.3.3.6.6.45 1.05-.06.17 0 .21.18.23.47.05.48.35.4.69-.69.8-1.37 1.59-2.58 1.76-1.09.16-2.15-.33-2.38-1.18" fill="#ed788e"/>
    <path d="M54.47 21.25c-.17-.2 0-.79-.62-.47-.14.08-.4-.18-.3-.25.55-.45-.04-.8-.1-1.2-.12-.29.1-.48.28-.62.62-.47 1.28-.89 2.05-1.12.31.26.9.29.82.88-.84.83-1.34 1.88-1.99 2.84z" fill="#ee8296"/>
    <path d="M48.95 18.55c.12.11.13.33.35.36l-.03.12c-.36-.06-.34.3-.54.43-.1-.35.12-.61.22-.91" fill="#ec7189"/>
    <path d="M45.18 31.54c0 .3.07.62-.33.74-.14-.25-.6-.07-.65-.43.3-.2.57-.42.98-.31" fill="#ec768d"/>
    <path d="M55.78 17.59c-.68.69-1.85.82-2.33 1.75-.8.22-1.22.9-1.88 1.31-.36.23-.64.6-1.12.2-.17-.09-.32-.18-.34-.38l.18-.1c.5.2.83.04 1.24-.28q1.5-1.16 3.1-2.22a8 8 0 0 0 2.47-2.9c.2-.35.32-.8.85-.88-.13.74-.6 1.32-.96 1.95l-.22.4c-.31.4-.8.66-.99 1.15" fill="#eb6b86"/>
    <path d="M45.38 33.21c.27-.3.53-.16.71.1.14.2-.07.17-.2.17z" fill="#ef8f9e"/>
    <path d="M68.36 24.54c.3-.22.5-.28.73-.12.07.06.12.17.02.23-.24.14-.45 0-.75-.12" fill="#ed7f93"/>
    <path d="M53.1 32.05c-.5.28-.9-.35-1.4-.2-.06-.14-.21-.16-.34-.22q-.2-.12-.04-.26c.1-.08.25-.24.34-.05.26.53.68.41 1.08.3.57-.16.45.13.37.43" fill="#ee8497"/>
  </g>
  <defs>
    <clipPath id="a">
      <path fill="#fff" d="m55.92 0 23.44 9.52-13.2 32.5-23.44-9.52z"/>
    </clipPath>
  </defs>
</svg>
