<svg fill="none" xmlns="http://www.w3.org/2000/svg" viewBox="0 0 248 18">
  <path d="M.74 13.68q.2.43.5.89.35.43.8.79.48.36 1.1.6a4.2 4.2 0 0 0 2.81-.05 3.3 3.3 0 0 0 2.02-3.21q0-1.1-.58-1.76Q6.84 10.3 6 9.86q-.84-.42-1.82-.79a10 10 0 0 1-1.8-.89A5 5 0 0 1 .96 6.8a4 4 0 0 1-.55-2.25q0-1.01.36-1.83.36-.84 1.03-1.44.7-.6 1.66-.93A7 7 0 0 1 5.62 0Q6.76 0 7.6.29q.84.25 1.56.84-.23.4-.36.86-.15.46-.29 1.15h-.29a5 5 0 0 0-.89-1.46 2.7 2.7 0 0 0-1.96-.8q-.68 0-1.25.22t-.99.63a2.8 2.8 0 0 0-.86 2.13q0 1.14.55 1.78.58.65 1.42 1.1t1.8.8q.98.33 1.82.84a4.5 4.5 0 0 1 1.4 1.3q.57.78.57 2.1a5.4 5.4 0 0 1-1.56 3.82q-.75.72-1.85 1.13-1.08.38-2.47.38-1.5 0-2.42-.38A7 7 0 0 1 0 15.82q.21-.55.29-.99.1-.46.17-1.15zM18.07 6.5q0-1.58-.07-3.12L17.88.31l2.14.1a97 97 0 0 0 4.3 0l2.13-.1a4 4 0 0 0 0 1.44l-2.76-.19q-.7-.05-1.54-.07-.84-.05-2.01-.05-.02.77-.08 1.46l-.02 1.59V6.3q.02.9.02 1.35a67 67 0 0 0 5.84-.24 4 4 0 0 0 0 1.46 26 26 0 0 0-3.12-.17l-1.56-.02-1.16-.03q0 .22-.02.48v5.26l.05 1.34h1.68q.9 0 1.77-.02l1.66-.1q.79-.06 1.37-.19-.05.16-.07.39v.36q0 .38.07.62-1.08-.05-2.16-.05h-4.35q-1.07 0-2.18.05a202 202 0 0 0 .2-6.17zm16.8.03q0-1.59-.07-3.1L34.68.31l.6.1a7 7 0 0 0 1.75-.1l-.14 3.12q-.05 1.51-.05 3.1a497 497 0 0 0 .07 9.21q1.71 0 3.27-.02 1.56-.05 3.36-.29a3 3 0 0 0-.12.72q0 .27.12.65-1.11-.05-2.21-.05h-4.44q-1.05 0-2.21.05a177 177 0 0 0 .2-6.14zm16.8-.03q0-1.58-.07-3.12L51.48.31l2.14.1a97 97 0 0 0 4.3 0l2.13-.1a4 4 0 0 0 0 1.44l-2.76-.19q-.7-.05-1.54-.07-.84-.05-2.01-.05-.03.77-.08 1.46l-.02 1.59V6.3q.03.9.02 1.35a67 67 0 0 0 5.84-.24 4 4 0 0 0 0 1.46 26 26 0 0 0-3.12-.17l-1.56-.02-1.16-.03q0 .22-.02.48v5.26l.05 1.34h1.68q.9 0 1.77-.02l1.66-.1q.79-.06 1.37-.19-.05.16-.07.39v.36q0 .38.07.62-1.08-.05-2.16-.05h-4.35q-1.08 0-2.18.05a202 202 0 0 0 .2-6.17zm29.21 9.32q-.22.19-.7.43-.46.21-1.12.4-.65.18-1.47.32a11.17 11.17 0 0 1-5.2-.38q-1.61-.56-2.79-1.66a8 8 0 0 1-1.82-2.69 10 10 0 0 1-.65-3.65q0-2.04.65-3.62a8 8 0 0 1 1.84-2.71q1.2-1.11 2.86-1.68Q74.13 0 76.13 0 77.7 0 79 .34q1.32.3 2.33.76-.2.34-.32.92l-.19.96-.14.04A7.39 7.39 0 0 0 79 1.68a6 6 0 0 0-2.88-.8 8 8 0 0 0-2.64.46q-1.2.45-2.11 1.42a6.5 6.5 0 0 0-1.4 2.4q-.5 1.44-.5 3.43t.5 3.46q.5 1.44 1.4 2.4.9.94 2.1 1.39 1.23.46 2.65.46.86 0 1.58-.22a9 9 0 0 0 2.45-1.15q.51-.36.84-.63l.1.1zm11.74-9.3q0-2.49-.08-4.96a38 38 0 0 0-2.68.07 35 35 0 0 0-2.45.2q.12-.45.12-.77 0-.27-.12-.75l3.1.1a195 195 0 0 0 9.28-.1q-.12.48-.12.77 0 .31.12.74l-1.15-.12-1.32-.07q-.67-.05-1.37-.05l-1.3-.02q-.06 2.47-.07 4.97v4.13a100 100 0 0 0 .2 6.14 14 14 0 0 0-2.36 0 177 177 0 0 0 .2-6.14zm28.24 4.5q0 1.22.05 2.42l.1 2.42q.45.06 1.08.1.62.02 1.27.02a4 4 0 0 0 2.71-1.03q.52-.52.84-1.27.3-.77.31-1.73 0-1.03-.38-1.68-.36-.67-1.06-1.03a5 5 0 0 0-1.68-.53q-.96-.15-2.16-.14h-1.08zm1.3-3.34a8 8 0 0 0 1.66-.17 5 5 0 0 0 1.48-.55 3 3 0 0 0 1.03-1.06q.41-.66.41-1.68 0-.97-.36-1.56a2.5 2.5 0 0 0-.9-.9 3 3 0 0 0-1.26-.44 8 8 0 0 0-2.44-.07q-.44.02-.77.07l-.1 2.28q-.05 1.12-.05 2.28v1.8zm-3.27-1.18q0-1.58-.07-3.12L118.7.31l1.27.1a34 34 0 0 0 2.55-.03 12 12 0 0 1 3.22.1q.9.15 1.6.55.7.39 1.1 1.06.42.67.41 1.68 0 1.77-1.12 2.78a6 6 0 0 1-2.9 1.42v.05q2.13.09 3.35 1.03 1.25.93 1.25 3 0 1.35-.55 2.25-.56.9-1.44 1.5-.9.54-1.97.78-1.05.22-2.11.22-.58 0-1.18-.02-.57-.03-1.15-.03h-1.17q-.58 0-1.16.05a202 202 0 0 0 .2-6.17zm23.49 3.56-.72-1.18q-.45-.79-1.04-1.73l-1.17-1.99-1.2-2a71 71 0 0 0-1.7-2.85l.64.1a9 9 0 0 0 1.32 0l.67-.1a196 196 0 0 0 4.56 8.3q.55-.86 1.16-1.89a124 124 0 0 0 2.35-4.27q.54-1.1 1.03-2.14.6.12.94.12t.93-.12l-2.06 3.17a107 107 0 0 0-2.84 4.66q-.53.9-.9 1.65v1.9l.09 3.79q.04.81.1 1.32a14 14 0 0 0-2.36 0q.15-1.25.17-3.02.03-1.78.03-3.72m28.9-1.73a7.4 7.4 0 0 0 3.25.02q.79-.17 1.44-.6.66-.45 1.08-1.22.43-.8.43-2.02 0-1.03-.29-1.68-.3-.65-.81-1-.51-.36-1.25-.49-.75-.15-1.68-.14h-2.16zm-1.96-1.8q0-1.59-.07-3.1l-.12-3.12 1.15.1a29 29 0 0 0 3.5-.07 11 11 0 0 1 2.64.14q.6.12 1.18.36.57.25 1.03.7.48.45.77 1.15.3.67.29 1.68a4.4 4.4 0 0 1-2.38 4.1q-.99.55-2.11.75t-1.97.19h-1l-.94-.07v1.32a100 100 0 0 0 .19 6.14 14 14 0 0 0-2.35 0 177 177 0 0 0 .19-6.14zm18.14 0q0-1.59-.08-3.1l-.12-3.12 1.37.1a38 38 0 0 0 2.74-.03q.66-.06 1.37-.07 1 0 1.91.2.92.19 1.59.64.69.43 1.08 1.15t.4 1.8q0 1.16-.52 2-.5.81-1.25 1.36a7 7 0 0 1-1.6.84q-.85.3-1.54.39l.79 1a292 292 0 0 0 4.9 6.13q.55.65.88.98a5 5 0 0 0-.72-.05h-1.42q-.35 0-.69.05a132 132 0 0 0-4.54-5.95 26 26 0 0 0-1.67-1.95h-.92v1.76a100 100 0 0 0 .2 6.14 14 14 0 0 0-2.36 0 177 177 0 0 0 .2-6.14zm1.96 1.37q.34.07.72.1l.9.02q.74 0 1.53-.17.81-.16 1.49-.58.66-.43 1.1-1.13.45-.72.46-1.8a3 3 0 0 0-1.25-2.52q-.56-.36-1.2-.48-.65-.15-1.27-.14-.84 0-1.4.05-.56.02-.93.07l-.1 2.62q-.05 1.29-.05 2.59zm17.5-1.37q0-1.59-.06-3.1l-.12-3.12.6.1a7 7 0 0 0 1.75-.1l-.15 3.12q-.04 1.51-.04 3.1v4.13a100 100 0 0 0 .19 6.14 14 14 0 0 0-2.35 0 177 177 0 0 0 .19-6.14zm23.9 9.29q-.22.19-.7.43-.45.21-1.13.4-.65.18-1.46.32a11.17 11.17 0 0 1-5.2-.38q-1.62-.56-2.8-1.66a8 8 0 0 1-1.82-2.69 10 10 0 0 1-.65-3.65q0-2.04.65-3.62a8 8 0 0 1 1.85-2.71q1.2-1.11 2.85-1.68 1.65-.58 3.65-.58 1.59 0 2.88.34 1.32.3 2.33.76-.2.34-.31.92l-.2.96-.14.04a7.39 7.39 0 0 0-1.68-1.34 6 6 0 0 0-2.88-.8 8 8 0 0 0-2.64.46q-1.2.45-2.11 1.42a6.5 6.5 0 0 0-1.4 2.4q-.5 1.44-.5 3.43t.5 3.46q.5 1.44 1.4 2.4.9.94 2.11 1.39 1.23.46 2.64.46.86 0 1.59-.22a9 9 0 0 0 2.44-1.15q.51-.36.84-.63l.1.1zm8.4-9.32q0-1.58-.08-3.12l-.12-3.07 2.14.1a97 97 0 0 0 4.3 0l2.13-.1a4 4 0 0 0 0 1.44l-2.76-.19q-.7-.05-1.54-.07-.84-.05-2.01-.05l-.07 1.46q-.03.7-.03 1.59V6.3l.03 1.35a67 67 0 0 0 5.83-.24 4 4 0 0 0 0 1.46 26 26 0 0 0-3.12-.17l-1.56-.02-1.15-.03-.03.48v5.26l.05 1.34h1.68q.9 0 1.78-.02l1.65-.1q.8-.06 1.37-.19-.05.16-.07.39v.36q0 .38.07.62-1.08-.05-2.16-.05h-4.34q-1.08 0-2.19.05a202 202 0 0 0 .2-6.17z" fill="#ea6770"/>
</svg>
