<svg fill="none" xmlns="http://www.w3.org/2000/svg" viewBox="0 0 599 29">
  <path d="M24.44 5.4q-.6-.72-1.52-1.44a9 9 0 0 0-2-1.24q-1.08-.56-2.44-.88-1.32-.36-2.84-.36-2.48 0-4.64.76A10 10 0 0 0 7.28 4.6a11 11 0 0 0-2.48 4q-.88 2.4-.88 5.72 0 2.92.8 5.28.8 2.35 2.32 4 1.56 1.6 3.76 2.48 2.24.88 5.04.88a20 20 0 0 0 3.52-.32q.88-.16 1.6-.4.75-.24 1.28-.56.04-1.2.04-2.4.04-1.2.04-2.44 0-1.4-.08-2.8-.04-1.4-.12-2.68a10 10 0 0 0 2.8.16q.44-.04.84-.16-.08.92-.12 2.92-.04 1.95-.04 5.2v1.64q.04.8.04 1.6-.84.32-2.12.68-1.24.32-2.68.52a49 49 0 0 1-5.4.6q-3.56 0-6.44-.84Q6.16 26.8 4.16 25a12 12 0 0 1-3.08-4.48A17 17 0 0 1 0 14.32q0-3.4 1.12-6.04 1.12-2.69 3.16-4.52Q6.32 1.92 9.2.96 12.13 0 15.64 0a24 24 0 0 1 6.4.8q1.24.37 2.16.76.92.4 1.64.76a8 8 0 0 0-.92 3.08zm16.21 5.48q0-2.64-.12-5.16-.08-2.55-.2-5.2l1 .16a12 12 0 0 0 1.92 0l1-.16-.24 5.2q-.08 2.52-.08 5.16v6.88A167 167 0 0 0 44.25 28a23 23 0 0 0-3.92 0 295 295 0 0 0 .32-10.24zm19.14 0q0-2.64-.12-5.16-.08-2.55-.2-5.2l3.56.16a162 162 0 0 0 7.24 0l4-.16a6 6 0 0 0 0 2.4q-1.09-.12-2.6-.2a58 58 0 0 0-3.12-.16 126 126 0 0 0-5.44-.16l-.08 2.68v5.16q.04 1.16.04 2.44 2.64 0 5.2-.08a80 80 0 0 0 5.12-.32 4.6 4.6 0 0 0 0 2.4q-1-.12-2.28-.16a75 75 0 0 0-5.36-.16h-2.68v3.4A167 167 0 0 0 63.39 28a23 23 0 0 0-3.92 0 295 295 0 0 0 .32-10.24zm33.56 0q0-4.15-.12-8.28-1.05 0-2.2.04-1.12 0-2.28.08-1.12.04-2.2.12-1.04.08-1.88.2.2-.72.2-1.28 0-.44-.2-1.24l5.16.16a325 325 0 0 0 10.32 0l5.16-.16q-.2.8-.2 1.28 0 .52.2 1.24-.84-.12-1.92-.2-1.05-.08-2.2-.12-1.12-.08-2.28-.08-1.12-.04-2.16-.04-.12 4.12-.12 8.28v6.88A167 167 0 0 0 96.95 28a23 23 0 0 0-3.92 0 295 295 0 0 0 .32-10.24zM140.9 28l-1-3.16q-.64-2.16-1.48-4.88l-5.08-16.24q-.68-2.16-1.08-3.2l1 .16a12 12 0 0 0 2 0l1-.16a333 333 0 0 0 3 11.12l1.76 5.76 2.16 6.8h.08l1-2.96 1.4-4.2q.75-2.32 1.6-4.8a320 320 0 0 0 2.84-8.84q.56-1.87.8-2.88.8.2 1.32.2t1.32-.2q.29 1.08.84 2.96l1.32 4.2 1.52 4.76a1086 1086 0 0 1 2.96 8.88l1 2.88h.08l.84-2.72a553 553 0 0 0 2.84-9.12q.8-2.6 1.48-4.92a217 217 0 0 0 2-6.92q.36.07.68.16a7 7 0 0 0 1.4 0l.72-.16q-.4.92-1.16 3.04l-1.72 4.84-1.96 5.76q-1 3.04-1.96 5.8L161.66 28a11 11 0 0 0-2.72 0q-1.8-5.56-3.56-11.16a488 488 0 0 0-3.8-11.64h-.08q-.31.92-.88 2.48l-1.2 3.44-1.4 4.12a768 768 0 0 0-3 8.84L143.7 28a11 11 0 0 0-2.8 0m42.76-17.12q0-2.64-.12-5.16-.08-2.55-.2-5.2l2.28.16q1.12.04 2.28.04t2.28-.08q1.12-.12 2.28-.12 1.68 0 3.2.32 1.52.31 2.64 1.08a5 5 0 0 1 1.8 1.92q.68 1.2.68 3 0 1.92-.88 3.32a8 8 0 0 1-2.08 2.28q-1.24.88-2.68 1.4-1.4.48-2.56.64l1.32 1.68a453 453 0 0 0 4.04 5.12L200.1 24l1.96 2.36q.91 1.08 1.48 1.64-.6-.08-1.2-.08h-2.36q-.6 0-1.16.08l-1.84-2.52a125 125 0 0 0-5.72-7.4 44 44 0 0 0-2.8-3.24h-1.52v2.92a165 165 0 0 0 .32 10.24 23 23 0 0 0-3.92 0 302 302 0 0 0 .32-10.24zm3.28 2.28q.56.12 1.2.16.68.04 1.48.04 1.24 0 2.56-.28 1.35-.28 2.48-.96a5.51 5.51 0 0 0 2.6-4.88 4.9 4.9 0 0 0-2.08-4.2 5 5 0 0 0-2-.8 10 10 0 0 0-2.12-.24q-1.4 0-2.32.08-.91.04-1.56.12l-.16 4.36q-.08 2.16-.08 4.32zm33.53 2.4q1.05 0 2.16.04 1.12.04 2.16.04h2.24l2.24-.08-4.44-10.16zM238.2 28a8 8 0 0 0-1.08-.08H235q-.47 0-1.04.08-.28-.92-.76-2.2-.48-1.32-1.08-2.72-.56-1.44-1.16-2.88l-1.12-2.8q-1.28-.04-2.6-.04a87 87 0 0 0-5.08 0q-1.2 0-2.44.04-1.27 3.12-2.32 5.96a63 63 0 0 0-1.56 4.64 13 13 0 0 0-2.96 0q3.24-7 6.32-13.92T225.4 0h.76l2.08 5.04a2223 2223 0 0 0 6.76 16q1.05 2.32 1.84 4.16a49 49 0 0 0 1.36 2.8m15.88-14.12a12 12 0 0 0 5.4.04 7 7 0 0 0 2.4-1 5.6 5.6 0 0 0 1.8-2.04q.72-1.32.72-3.36 0-1.72-.48-2.8a4 4 0 0 0-1.36-1.68 5 5 0 0 0-2.08-.8 15 15 0 0 0-2.8-.24h-3.6zm-3.28-3q0-2.64-.12-5.16-.08-2.55-.2-5.2l1.92.16q1 .04 1.96.04.48 0 1.16-.04.69-.04 1.36-.04l1.36-.08a18 18 0 0 1 4.4.24q1 .2 1.96.6t1.72 1.16q.8.76 1.28 1.92.48 1.12.48 2.8 0 2.64-1.16 4.28a8 8 0 0 1-2.8 2.56q-1.63.92-3.52 1.24-1.84.32-3.28.32h-1.68l-1.56-.12v2.2A168 168 0 0 0 254.4 28a23 23 0 0 0-3.92 0 292 292 0 0 0 .32-10.24zm33.51 3a12 12 0 0 0 5.4.04 7 7 0 0 0 2.4-1 5.6 5.6 0 0 0 1.8-2.04q.72-1.32.72-3.36 0-1.72-.48-2.8a4 4 0 0 0-1.36-1.68 5 5 0 0 0-2.08-.8Q289.46 2 287.9 2h-3.6zm-3.28-3q0-2.64-.12-5.16-.08-2.55-.2-5.2l1.92.16q1 .04 1.96.04.47 0 1.16-.04.67-.04 1.36-.04l1.36-.08a18 18 0 0 1 4.4.24q1 .2 1.96.6a5.51 5.51 0 0 1 3 3.08q.48 1.12.48 2.8 0 2.64-1.16 4.28a8 8 0 0 1-2.8 2.56q-1.65.92-3.52 1.24-1.84.32-3.28.32h-1.68l-1.56-.12v2.2a168 168 0 0 0 .32 10.24 23 23 0 0 0-3.92 0 292 292 0 0 0 .32-10.24zm30.23 0q0-2.64-.12-5.16-.08-2.55-.2-5.2l1 .16a12 12 0 0 0 1.92 0l1-.16-.24 5.2q-.08 2.52-.08 5.16v6.88a165 165 0 0 0 .32 10.24 23 23 0 0 0-3.92 0 302 302 0 0 0 .32-10.24zm41.65 17.64a375 375 0 0 0-9.8-10.88 2080 2080 0 0 0-10.4-11.12 236 236 0 0 0-.12 8.12v2.08q.04 1.25.04 2.6l.16 5.36.08 2.12q.04.88.08 1.2a11 11 0 0 0-2.88 0q.07-.4.16-1.48.12-1.08.2-2.56l.16-3.28q.12-1.76.16-3.52a151 151 0 0 0 .16-6.44A460 460 0 0 0 330.78 0h.64q2.44 2.64 5.2 5.68 2.8 3 5.52 5.96a671 671 0 0 1 5.2 5.56 272 272 0 0 0 4.32 4.44V16.2a399 399 0 0 0-.32-15.68q.8.2 1.36.2.48 0 1.28-.2a131 131 0 0 0-.4 6.4l-.16 3.92q-.08 1.92-.08 3.08v5.24q.04 1.48.04 3 .04 1.48.04 2.8.04 1.28.04 2.24v1.32zM392.43 5.4q-.6-.72-1.52-1.44a9 9 0 0 0-2-1.24 11 11 0 0 0-2.44-.88q-1.32-.36-2.84-.36-2.48 0-4.64.76a10 10 0 0 0-3.72 2.36 11 11 0 0 0-2.48 4q-.88 2.4-.88 5.72 0 2.92.8 5.28.8 2.35 2.32 4 1.57 1.6 3.76 2.48 2.24.88 5.04.88a20 20 0 0 0 3.52-.32q.88-.16 1.6-.4.76-.24 1.28-.56.04-1.2.04-2.4a72 72 0 0 0-.16-7.92 10 10 0 0 0 2.8.16q.44-.04.84-.16-.08.92-.12 2.92-.04 1.95-.04 5.2v1.64q.04.8.04 1.6-.84.32-2.12.68-1.23.32-2.68.52a48 48 0 0 1-5.4.6q-3.56 0-6.44-.84-2.84-.88-4.84-2.68a12 12 0 0 1-3.08-4.48 17 17 0 0 1-1.08-6.2q0-3.4 1.12-6.04 1.12-2.69 3.16-4.52 2.04-1.84 4.92-2.8 2.93-.96 6.44-.96a24 24 0 0 1 6.4.8q1.25.37 2.16.76.93.4 1.64.76a8 8 0 0 0-.92 3.08zm15.33 17.4q.33.72.85 1.48.55.72 1.31 1.32.8.6 1.84 1a7 7 0 0 0 4.69-.08 5.5 5.5 0 0 0 2.95-3.08q.4-1.08.4-2.28 0-1.84-.95-2.92a8 8 0 0 0-2.33-1.8q-1.4-.72-3.03-1.32a17 17 0 0 1-3-1.48 9 9 0 0 1-2.37-2.32 7 7 0 0 1-.92-3.76q0-1.68.6-3.04.6-1.4 1.72-2.4A8 8 0 0 1 412.3.56q1.59-.56 3.6-.56 1.92 0 3.31.48 1.4.45 2.6 1.4-.36.68-.6 1.44a20 20 0 0 0-.47 1.92h-.49a8 8 0 0 0-.56-1.2 4 4 0 0 0-.92-1.24 4.5 4.5 0 0 0-3.27-1.32q-1.12 0-2.09.36-.9.36-1.63 1.04a4.7 4.7 0 0 0-1.44 3.56q0 1.88.92 2.96a9 9 0 0 0 2.36 1.84q1.4.72 3 1.32 1.64.56 3.03 1.4 1.4.84 2.32 2.16.97 1.32.97 3.52a9 9 0 0 1-2.6 6.36 9 9 0 0 1-3.08 1.88q-1.8.64-4.12.64-2.48 0-4.05-.64a12 12 0 0 1-2.56-1.52q.36-.92.49-1.64.16-.76.28-1.92zm28.88-11.96q0-2.64-.12-5.2-.08-2.55-.2-5.12l3.56.16a162 162 0 0 0 7.17 0l3.56-.16a6 6 0 0 0 0 2.4 207 207 0 0 1-4.6-.32q-1.17-.08-2.56-.12-1.4-.08-3.37-.08a76.6 76.6 0 0 0-.16 5.08v3.04q.04 1.48.04 2.24a112 112 0 0 0 9.73-.4 6 6 0 0 0 0 2.44 43 43 0 0 0-5.2-.28q-1.37-.04-2.6-.04-1.2-.04-1.93-.04 0 .35-.03.8V24q.04 1.48.07 2.24h2.8q1.52 0 2.96-.04 1.5-.07 2.76-.16 1.32-.12 2.29-.32-.09.28-.12.64v.6q0 .64.12 1.04-1.8-.08-3.6-.08h-7.25q-1.8 0-3.63.08a332 332 0 0 0 .31-10.28zm28 .04q0-2.64-.12-5.16-.08-2.55-.2-5.2l2.29.16q1.11.04 2.27.04 1.17 0 2.29-.08 1.11-.12 2.27-.12 1.7 0 3.2.32 1.53.31 2.65 1.08a5 5 0 0 1 1.8 1.92q.68 1.2.68 3a6 6 0 0 1-.88 3.32 8 8 0 0 1-2.08 2.28q-1.25.88-2.69 1.4-1.4.48-2.56.64l1.32 1.68a512 512 0 0 0 8.17 10.2q.9 1.08 1.47 1.64-.6-.08-1.2-.08h-2.36q-.6 0-1.15.08l-1.85-2.52a123 123 0 0 0-5.71-7.4 43 43 0 0 0-2.8-3.24h-1.52v2.92a168 168 0 0 0 .31 10.24 23 23 0 0 0-3.92 0 292 292 0 0 0 .32-10.24zm3.29 2.28q.56.12 1.2.16.67.04 1.48.04 1.24 0 2.56-.28 1.36-.28 2.47-.96a5.5 5.5 0 0 0 2.6-4.88 4.9 4.9 0 0 0-2.07-4.2 5 5 0 0 0-2-.8 10 10 0 0 0-2.12-.24q-1.4 0-2.32.08-.93.04-1.56.12L468 6.56q-.07 2.16-.07 4.32zM503.53 28a978 978 0 0 0-8.16-20.2 747 747 0 0 0-3-7.28l1.08.16a13 13 0 0 0 2 0l1.08-.16q.88 2.64 1.92 5.56 1.08 2.88 2.24 5.88l2.44 6.08q1.25 3.08 2.52 6.12.72-1.64 1.56-3.64.84-2.04 1.68-4.2a223 223 0 0 0 3.32-8.8 166 166 0 0 0 2.52-7q.88.2 1.48.2t1.48-.2a657 657 0 0 0-6 13.8A489 489 0 0 0 506.17 28a11 11 0 0 0-2.64 0m26.76-17.12q0-2.64-.12-5.16-.08-2.55-.2-5.2l1 .16a12 12 0 0 0 1.92 0l1-.16-.24 5.2q-.08 2.52-.08 5.16v6.88A168 168 0 0 0 533.9 28a23 23 0 0 0-3.92 0 292 292 0 0 0 .32-10.24zm39.82 15.48q-.36.32-1.16.72-.77.36-1.88.68-1.09.28-2.44.52-1.37.24-2.84.24-3.17 0-5.84-.88a13 13 0 0 1-4.64-2.76 13 13 0 0 1-3.04-4.48 16 16 0 0 1-1.08-6.08q0-3.4 1.08-6.04 1.11-2.69 3.08-4.52a13.5 13.5 0 0 1 4.76-2.8 18 18 0 0 1 6.08-.96q2.64 0 4.8.56 2.2.52 3.88 1.28-.33.56-.52 1.52-.2.96-.32 1.6l-.24.08a9 9 0 0 0-1.12-1.08 12 12 0 0 0-1.68-1.16 10 10 0 0 0-4.8-1.32q-2.37 0-4.4.76-2 .76-3.52 2.36a11 11 0 0 0-2.32 4q-.84 2.4-.84 5.72t.84 5.76a11 11 0 0 0 2.32 4 10 10 0 0 0 3.52 2.32q2.04.75 4.4.76 1.44 0 2.64-.36 1.23-.36 2.24-.84 1.03-.52 1.84-1.08.83-.6 1.4-1.04l.16.16zm14-15.52q0-2.64-.12-5.2-.08-2.55-.2-5.12l3.56.16a162 162 0 0 0 7.16 0l3.56-.16a6 6 0 0 0 0 2.4 207 207 0 0 1-4.6-.32q-1.17-.08-2.56-.12-1.41-.08-3.36-.08a76.6 76.6 0 0 0-.16 5.08v3.04l.04 2.24a112 112 0 0 0 9.72-.4 6 6 0 0 0 0 2.44 43 43 0 0 0-5.2-.28q-1.37-.04-2.6-.04-1.2-.04-1.92-.04 0 .35-.04.8V24q.03 1.48.08 2.24h2.8q1.51 0 2.96-.04 1.47-.07 2.76-.16 1.32-.12 2.28-.32-.09.28-.12.64v.6q0 .64.12 1.04-1.8-.08-3.6-.08h-7.24q-1.8 0-3.64.08a332 332 0 0 0 .32-10.28z" fill="#ea6770"/>
</svg>
