<svg fill="none" xmlns="http://www.w3.org/2000/svg" viewBox="0 0 237 18">
  <path d="M.2 6.53q0-1.59-.08-3.1L0 .31l.6.1A7 7 0 0 0 2.35.3l-.14 3.12q-.05 1.51-.05 3.1v4.13a100 100 0 0 0 .2 6.14 14 14 0 0 0-2.36 0 177 177 0 0 0 .2-6.14zm14.8 0q0-2.5-.06-4.97a38 38 0 0 0-2.7.07 35 35 0 0 0-2.44.2q.12-.45.12-.77 0-.27-.12-.75l3.1.1a195 195 0 0 0 9.28-.1q-.12.48-.12.77 0 .31.12.74l-1.15-.12-1.32-.07q-.67-.05-1.37-.05l-1.3-.02q-.06 2.47-.06 4.97v4.13a100 100 0 0 0 .19 6.14 14 14 0 0 0-2.35 0 177 177 0 0 0 .19-6.14zm14.8-.03q0-1.58-.06-3.12L29.62.31l2.13.1a97 97 0 0 0 4.3 0l2.13-.1a4 4 0 0 0 0 1.44l-2.76-.19q-.69-.05-1.53-.07-.84-.05-2.02-.05-.02.77-.07 1.46-.02.7-.02 1.59V6.3l.02 1.35a67 67 0 0 0 5.83-.24 4 4 0 0 0 0 1.46 26 26 0 0 0-3.12-.17l-1.56-.02-1.15-.03q0 .22-.02.48v5.26l.04 1.34h1.68q.91 0 1.78-.02l1.66-.1q.79-.06 1.36-.19-.04.16-.07.39v.36q0 .38.07.62-1.08-.05-2.16-.05H31.8q-1.08 0-2.18.05a202 202 0 0 0 .19-6.17zM48.15 0a255 255 0 0 0 6.9 13.22l.69-1.3 1.05-1.96 1.28-2.38 1.39-2.61L62.16 0h.31q.27 2.3.48 4.46l.96 8.33q.24 2.02.53 4.01a4 4 0 0 0-.58-.05h-1.12q-.27 0-.56.05l-.52-6.2q-.27-3-.65-6.11h-.05Q59.3 7.5 57.7 10.5a94 94 0 0 0-3.03 6.24h-.21q-1.44-3.02-3.03-6.05-1.56-3.04-3.14-6.21h-.05l-.38 3.24a279 279 0 0 0-.65 6.62q-.12 1.5-.12 2.45a7 7 0 0 0-1.68 0 864 864 0 0 0 1.3-8.45A247 247 0 0 0 47.73 0zm48.48 15.82q-.2.19-.7.43-.45.21-1.12.4-.65.18-1.46.32a11.17 11.17 0 0 1-5.2-.38q-1.62-.56-2.8-1.66a8 8 0 0 1-1.82-2.69 10 10 0 0 1-.65-3.65q0-2.04.65-3.62a8 8 0 0 1 1.85-2.71q1.2-1.11 2.85-1.68Q89.87 0 91.87 0q1.59 0 2.88.34 1.32.3 2.33.76-.2.34-.31.92l-.2.96-.14.04a7.39 7.39 0 0 0-1.68-1.34 6 6 0 0 0-2.88-.8 8 8 0 0 0-2.64.46q-1.2.45-2.11 1.42a6.5 6.5 0 0 0-1.4 2.4q-.5 1.44-.5 3.43t.5 3.46q.5 1.44 1.4 2.4.9.94 2.11 1.39 1.23.46 2.64.46.86 0 1.59-.22a9 9 0 0 0 2.44-1.15q.51-.36.84-.63l.1.1zm9.94-6.48q.63 0 1.3.02t1.3.02h1.34l1.34-.04-2.66-6.1zm10.63 7.46a5 5 0 0 0-.64-.05h-1.28q-.29 0-.62.05-.17-.55-.46-1.32-.28-.8-.64-1.63l-.7-1.73-.67-1.68q-.78-.03-1.56-.02a52 52 0 0 0-3.05 0q-.72 0-1.46.02-.78 1.87-1.4 3.58a38 38 0 0 0-.93 2.78 8 8 0 0 0-1.78 0q1.94-4.2 3.8-8.35 1.85-4.16 3.71-8.45h.46l1.25 3.02 4.05 9.6q.63 1.4 1.1 2.5.5 1.11.82 1.68m9.12-10.27q0-2.5-.07-4.97a38 38 0 0 0-2.7.07 35 35 0 0 0-2.44.2q.12-.45.12-.77 0-.27-.12-.75l3.1.1a195 195 0 0 0 9.28-.1q-.12.48-.12.77 0 .31.12.74l-1.15-.12-1.32-.07q-.67-.05-1.37-.05l-1.3-.02q-.06 2.47-.06 4.97v4.13a100 100 0 0 0 .19 6.14 14 14 0 0 0-2.35 0 177 177 0 0 0 .19-6.14zm14.8-.03q0-1.58-.07-3.12l-.12-3.07 2.13.1a97 97 0 0 0 4.3 0l2.13-.1a4 4 0 0 0 0 1.44l-2.76-.19q-.69-.05-1.53-.07-.84-.05-2.02-.05-.02.77-.07 1.46-.03.7-.02 1.59V6.3l.02 1.35a67 67 0 0 0 5.83-.24 4 4 0 0 0 0 1.46 26 26 0 0 0-3.12-.17l-1.56-.02-1.15-.03q0 .22-.02.48v5.26l.04 1.34h1.68q.91 0 1.78-.02l1.66-.1q.78-.06 1.36-.19-.04.16-.07.39v.36q0 .38.07.62-1.08-.05-2.16-.05h-4.34q-1.08 0-2.18.05a202 202 0 0 0 .19-6.17zm30.55-3.26a6 6 0 0 0-.91-.86 6 6 0 0 0-1.2-.75 6 6 0 0 0-1.47-.53 7 7 0 0 0-1.7-.21q-1.5 0-2.78.45t-2.24 1.42a7 7 0 0 0-1.48 2.4q-.53 1.44-.53 3.43 0 1.76.48 3.17t1.39 2.4a6.5 6.5 0 0 0 2.26 1.49q1.35.53 3.02.53a12 12 0 0 0 2.11-.2 7 7 0 0 0 .96-.24q.45-.14.77-.33.03-.72.02-1.44a44 44 0 0 0-.1-4.75 6 6 0 0 0 1.69.1q.26-.04.5-.1-.04.54-.07 1.75-.03 1.17-.02 3.12v.98l.02.96q-.5.2-1.27.41-.75.2-1.61.31a29 29 0 0 1-3.24.36q-2.13 0-3.86-.5a7.15 7.15 0 0 1-4.75-4.3A10 10 0 0 1 157 8.6q0-2.04.67-3.62a7.5 7.5 0 0 1 1.9-2.71q1.22-1.11 2.95-1.68 1.74-.58 3.86-.58a14 14 0 0 1 3.84.48 11 11 0 0 1 2.28.91 5 5 0 0 0-.55 1.85zm8.38 5.35q0-2.04.65-3.62a8 8 0 0 1 1.85-2.71q1.2-1.11 2.86-1.68 1.65-.58 3.62-.58 1.99 0 3.65.58 1.66.57 2.83 1.68 1.2 1.1 1.85 2.7a9 9 0 0 1 .67 3.63q0 2.04-.67 3.65a7.4 7.4 0 0 1-4.68 4.34q-1.65.53-3.65.53-1.97 0-3.62-.53a8 8 0 0 1-2.86-1.65 8 8 0 0 1-1.85-2.69 10 10 0 0 1-.65-3.65m15.63 0q0-2-.5-3.43a6 6 0 0 0-1.42-2.4 5.4 5.4 0 0 0-2.12-1.42 7 7 0 0 0-2.61-.45q-1.4 0-2.62.45-1.2.45-2.1 1.42a6.5 6.5 0 0 0-1.4 2.4q-.5 1.44-.5 3.43t.5 3.46q.5 1.44 1.4 2.4.9.94 2.1 1.39 1.23.46 2.62.46a7 7 0 0 0 2.61-.46q1.23-.45 2.12-1.4a7 7 0 0 0 1.41-2.4q.5-1.45.5-3.45m10.51-2.06q0-1.59-.07-3.1l-.12-3.12 1.37.1a38 38 0 0 0 2.73-.03q.67-.06 1.37-.07 1 0 1.92.2.91.19 1.58.64.7.43 1.08 1.15.41.72.41 1.8 0 1.16-.53 2-.5.81-1.24 1.36a7 7 0 0 1-1.61.84q-.84.3-1.54.39l.8 1a292 292 0 0 0 4.89 6.13q.55.65.89.98a5 5 0 0 0-.72-.05h-1.42q-.36 0-.7.05a132 132 0 0 0-4.53-5.95 26 26 0 0 0-1.68-1.95h-.91v1.76a100 100 0 0 0 .19 6.14 14 14 0 0 0-2.35 0 177 177 0 0 0 .19-6.14zm1.97 1.37q.33.07.72.1l.89.02q.74 0 1.53-.17.82-.16 1.49-.58.68-.43 1.1-1.13.46-.72.46-1.8a3 3 0 0 0-1.25-2.52q-.56-.36-1.2-.48-.64-.15-1.27-.14-.84 0-1.4.05-.54.02-.93.07l-.1 2.62q-.04 1.29-.04 2.59zm20.62 2.16-.72-1.18q-.46-.79-1.03-1.73l-1.18-1.99q-.62-1.05-1.2-2a71 71 0 0 0-1.7-2.85l.65.1a9 9 0 0 0 1.31 0l.68-.1a196 196 0 0 0 4.56 8.3q.55-.86 1.15-1.89a124 124 0 0 0 2.35-4.27q.55-1.1 1.03-2.14.6.12.94.12t.93-.12l-2.06 3.17a107 107 0 0 0-2.83 4.66q-.53.9-.91 1.65v1.9l.1 3.79.09 1.32a14 14 0 0 0-2.35 0q.15-1.25.16-3.02.03-1.78.03-3.72" fill="#ea6770"/>
</svg>
