<svg fill="none" xmlns="http://www.w3.org/2000/svg" viewBox="0 0 237 52">
  <path d="M15.02 3.24a6 6 0 0 0-.9-.86 6 6 0 0 0-1.2-.75 6 6 0 0 0-1.47-.53A7 7 0 0 0 9.75.9q-1.5 0-2.79.45-1.28.45-2.23 1.42a7 7 0 0 0-1.49 2.4q-.53 1.44-.53 3.43 0 1.76.48 3.17t1.4 2.4a6.5 6.5 0 0 0 2.25 1.49q1.34.53 3.02.53a12 12 0 0 0 2.12-.2 7 7 0 0 0 .96-.24q.46-.14.76-.33l.03-1.44a44 44 0 0 0-.1-4.75 6 6 0 0 0 1.68.1q.27-.04.5-.1-.04.54-.07 1.75l-.02 3.12v.98q.02.48.02.96-.5.2-1.27.41-.75.2-1.6.31a29 29 0 0 1-3.25.36q-2.12 0-3.86-.5a7.15 7.15 0 0 1-4.75-4.3A10 10 0 0 1 .36 8.6q0-2.04.67-3.62a7.5 7.5 0 0 1 1.9-2.71Q4.15 1.15 5.88.58 7.64 0 9.74 0a14 14 0 0 1 3.84.48 11 11 0 0 1 2.28.91 5 5 0 0 0-.55 1.85zm9.73 3.29q0-1.59-.07-3.1L24.56.31l.6.1a7 7 0 0 0 1.75-.1l-.14 3.12q-.05 1.51-.05 3.1v4.13a100 100 0 0 0 .2 6.14 14 14 0 0 0-2.36 0 177 177 0 0 0 .2-6.14zm11.48 0q0-1.59-.07-3.1L36.04.31l2.14.1a97 97 0 0 0 6.74-.1 4 4 0 0 0 0 1.44q-.64-.08-1.56-.12-.9-.07-1.87-.1a75 75 0 0 0-3.27-.09l-.04 1.6v3.1l.02 1.47q1.59 0 3.12-.05 1.56-.05 3.07-.2a3 3 0 0 0 0 1.45q-.6-.07-1.37-.1a45 45 0 0 0-3.21-.1H38.2v2.05a100 100 0 0 0 .2 6.14 14 14 0 0 0-2.36 0 177 177 0 0 0 .2-6.14zm20.14 0q0-2.5-.07-4.97a38 38 0 0 0-2.7.07 35 35 0 0 0-2.44.2q.12-.45.12-.77 0-.27-.12-.75l3.1.1a195 195 0 0 0 9.28-.1q-.12.48-.12.77 0 .31.12.74L62.4 1.7l-1.32-.07q-.67-.05-1.37-.05l-1.3-.02q-.06 2.47-.06 4.97v4.13a100 100 0 0 0 .19 6.14 14 14 0 0 0-2.35 0 177 177 0 0 0 .19-6.14zM84.9 16.8a471 471 0 0 1-2.54-8.23l-2-6.34q-.4-1.29-.64-1.92l.6.1a7 7 0 0 0 1.8-.1 203 203 0 0 0 1.8 6.67l1.05 3.46 1.3 4.08h.05l.6-1.78.84-2.52.96-2.88a192 192 0 0 0 1.7-5.3q.33-1.13.48-1.73.47.12.8.12.3 0 .78-.12l.5 1.78q.37 1.13.8 2.52l.91 2.85 1.78 5.33.6 1.73h.05l.5-1.63a332 332 0 0 0 1.7-5.47 224 224 0 0 0 1.64-5.48q.33-1.1.45-1.63l.41.1a4 4 0 0 0 .84 0l.43-.1q-.24.55-.7 1.83l-1.03 2.9-2.35 6.94-1.65 4.82a7 7 0 0 0-1.64 0q-1.08-3.34-2.13-6.7-1.06-3.38-2.28-6.98h-.05l-.53 1.49-.72 2.06q-.37 1.16-.84 2.47a512 512 0 0 0-2.59 7.66 7 7 0 0 0-1.68 0m25.66-10.27q0-1.59-.08-3.1l-.12-3.12 1.37.1a38 38 0 0 0 2.74-.03q.67-.06 1.37-.07 1 0 1.92.2.9.19 1.58.64.69.43 1.08 1.15t.4 1.8q0 1.16-.52 2-.5.81-1.25 1.36a7 7 0 0 1-1.6.84q-.85.3-1.54.39l.79 1a292 292 0 0 0 4.9 6.13q.55.65.88.98a5 5 0 0 0-.72-.05h-1.42q-.35 0-.69.05a132 132 0 0 0-4.53-5.95 26 26 0 0 0-1.68-1.95h-.92v1.76a100 100 0 0 0 .2 6.14 14 14 0 0 0-2.36 0 177 177 0 0 0 .2-6.14zm1.96 1.37q.34.07.72.1l.9.02q.73 0 1.53-.17.81-.16 1.49-.58.66-.43 1.1-1.13.45-.72.46-1.8a3 3 0 0 0-1.25-2.52q-.55-.36-1.2-.48-.65-.15-1.27-.14-.84 0-1.4.05-.55.02-.93.07l-.1 2.62q-.05 1.29-.05 2.59zm20.12 1.44q.63 0 1.3.02t1.3.02h1.34l1.34-.04-2.66-6.1zm10.64 7.46a5 5 0 0 0-.65-.05h-1.27q-.3 0-.63.05-.16-.55-.45-1.32-.3-.8-.65-1.63l-.7-1.73-.67-1.68q-.76-.03-1.56-.02a52 52 0 0 0-3.05 0q-.72 0-1.46.02-.77 1.87-1.4 3.58a38 38 0 0 0-.93 2.78 8 8 0 0 0-1.78 0q1.94-4.2 3.8-8.35L135.6 0h.45l1.25 3.02 4.06 9.6 1.1 2.5q.5 1.11.82 1.68m9.52-8.47a7.4 7.4 0 0 0 3.24.02q.8-.17 1.44-.6.67-.45 1.08-1.22.44-.8.44-2.02 0-1.03-.3-1.68-.28-.65-.8-1-.51-.36-1.26-.49-.74-.15-1.68-.14h-2.16zm-1.96-1.8q0-1.59-.08-3.1l-.12-3.12 1.16.1a29 29 0 0 0 3.5-.07 11 11 0 0 1 2.64.14q.6.12 1.18.36.57.25 1.03.7t.77 1.15q.28.67.28 1.68a4.4 4.4 0 0 1-2.37 4.1q-.99.55-2.11.75t-1.97.19h-1.01l-.94-.07v1.32a100 100 0 0 0 .2 6.14 14 14 0 0 0-2.36 0 177 177 0 0 0 .2-6.14zm20.1 1.8a7.4 7.4 0 0 0 3.24.02q.79-.17 1.44-.6.67-.45 1.08-1.22.43-.8.43-2.02 0-1.03-.29-1.68t-.81-1q-.5-.36-1.25-.49-.75-.15-1.68-.14h-2.16zm-1.97-1.8q0-1.59-.07-3.1l-.12-3.12 1.15.1a29 29 0 0 0 3.5-.07 11 11 0 0 1 2.65.14q.6.12 1.17.36.58.25 1.03.7.48.45.77 1.15.3.67.29 1.68a4.4 4.4 0 0 1-2.38 4.1q-.98.55-2.1.75-1.11.19-1.98.19h-1l-.94-.07v1.32a100 100 0 0 0 .2 6.14 14 14 0 0 0-2.36 0 177 177 0 0 0 .2-6.14zm18.14 0q0-1.59-.07-3.1l-.12-3.12.6.1a7 7 0 0 0 1.75-.1l-.15 3.12q-.04 1.51-.04 3.1v4.13a100 100 0 0 0 .19 6.14 14 14 0 0 0-2.35 0 177 177 0 0 0 .19-6.14zM212.1 17.1q-2.76-3.19-5.88-6.53-3.12-3.36-6.24-6.67a131 131 0 0 0-.07 4.87v1.25l.02 1.56.15 4.49.04.72a7 7 0 0 0-1.72 0q.04-.24.1-.89.06-.64.11-1.53a276 276 0 0 0 .29-7.95 279 279 0 0 0-.07-6.43h.38l3.12 3.4 3.31 3.58q1.66 1.75 3.12 3.34 1.5 1.56 2.6 2.66V9.72a243 243 0 0 0-.2-9.4q.49.1.82.11.3 0 .77-.12a77 77 0 0 0-.24 3.84l-.1 2.35q-.05 1.16-.05 1.85v3.14l.03 1.8.02 1.69.03 1.34v.8zm23.72-13.87a6 6 0 0 0-.91-.86 6 6 0 0 0-1.2-.75 6 6 0 0 0-1.47-.53 7 7 0 0 0-1.7-.21q-1.5 0-2.78.45t-2.24 1.42a7 7 0 0 0-1.49 2.4q-.52 1.44-.52 3.43 0 1.76.48 3.17t1.39 2.4a6.5 6.5 0 0 0 2.25 1.49q1.34.53 3.03.53a12 12 0 0 0 2.11-.2 7 7 0 0 0 .96-.24q.45-.14.77-.33l.02-1.44a44 44 0 0 0-.1-4.75 6 6 0 0 0 1.69.1q.26-.04.5-.1-.05.54-.07 1.75-.03 1.17-.03 3.12v.98l.03.96q-.5.2-1.27.41-.75.2-1.61.31a29 29 0 0 1-3.24.36q-2.13 0-3.86-.5a7.15 7.15 0 0 1-4.75-4.3 10 10 0 0 1-.66-3.72q0-2.04.68-3.62a7.5 7.5 0 0 1 1.9-2.71q1.21-1.11 2.95-1.68 1.74-.58 3.86-.58a14 14 0 0 1 3.84.48 11 11 0 0 1 2.28.91 5 5 0 0 0-.55 1.85zM.74 47.68q.2.43.5.89.35.43.8.79.48.36 1.1.6a4.2 4.2 0 0 0 2.81-.05 3.3 3.3 0 0 0 2.02-3.21q0-1.1-.58-1.76-.55-.64-1.39-1.08-.84-.43-1.82-.79a10 10 0 0 1-1.8-.89A5 5 0 0 1 .96 40.8a4 4 0 0 1-.55-2.25q0-1.01.36-1.83.36-.84 1.03-1.44.7-.6 1.66-.93A7 7 0 0 1 5.62 34q1.14 0 1.99.29.84.26 1.56.84-.23.4-.36.86-.15.45-.29 1.15h-.29a5 5 0 0 0-.89-1.46 2.7 2.7 0 0 0-1.96-.8q-.68 0-1.25.22t-.99.63a2.8 2.8 0 0 0-.86 2.13q0 1.14.55 1.78.58.65 1.42 1.1t1.8.8q.98.33 1.82.84a4.5 4.5 0 0 1 1.4 1.3q.57.78.57 2.1a5.4 5.4 0 0 1-1.56 3.82q-.75.72-1.85 1.13-1.08.38-2.47.38-1.5 0-2.42-.38A7 7 0 0 1 0 49.82q.21-.55.29-.99.1-.45.17-1.15zm17.33-7.18q0-1.58-.07-3.12l-.12-3.07 2.14.1a97 97 0 0 0 4.3 0l2.13-.1a4 4 0 0 0 0 1.44l-2.76-.19q-.7-.05-1.54-.07-.84-.05-2.01-.05-.02.77-.08 1.46l-.02 1.59v1.82q.02.9.02 1.35a67 67 0 0 0 5.84-.24 4 4 0 0 0 0 1.46 26 26 0 0 0-3.12-.17l-1.56-.02-1.16-.03q0 .22-.02.48v5.26l.05 1.34h1.68q.9 0 1.77-.02l1.66-.1q.79-.06 1.37-.19-.05.17-.07.39v.36q0 .38.07.62-1.08-.05-2.16-.05h-4.35q-1.07 0-2.18.05a202 202 0 0 0 .2-6.17zm16.8.03q0-1.59-.07-3.1l-.12-3.12 1.37.1a38 38 0 0 0 2.73-.03q.67-.06 1.37-.07 1 0 1.92.2.91.19 1.59.64.69.43 1.08 1.15t.4 1.8q0 1.16-.52 2-.51.81-1.25 1.36a7 7 0 0 1-1.61.84q-.84.3-1.54.39l.8 1a294 294 0 0 0 4.9 6.13q.54.65.88.98a5 5 0 0 0-.72-.05h-1.42q-.36 0-.7.05a132 132 0 0 0-4.53-5.95q-.9-1.16-1.68-1.95h-.91v1.76a100 100 0 0 0 .2 6.14 14 14 0 0 0-2.36 0 177 177 0 0 0 .2-6.14zm1.97 1.37q.33.06.72.1l.89.02q.74 0 1.53-.17.82-.16 1.5-.58.65-.43 1.1-1.13.45-.72.45-1.8a3 3 0 0 0-1.25-2.52q-.54-.36-1.2-.48-.64-.15-1.27-.14-.84 0-1.39.05-.55.02-.94.07l-.1 2.62q-.04 1.29-.04 2.59zm21.37 8.9a558 558 0 0 0-4.9-12.12q-.93-2.31-1.8-4.37l.65.1a8 8 0 0 0 1.85-.1q.52 1.59 1.15 3.34l1.34 3.53 1.47 3.64 1.5 3.68a149 149 0 0 0 3.94-9.99 98 98 0 0 0 1.52-4.2q.52.12.88.12t.9-.12a394 394 0 0 0-3.6 8.28 293 293 0 0 0-3.32 8.21 6 6 0 0 0-1.58 0m16.05-10.27q0-1.59-.07-3.1l-.12-3.12.6.1a7 7 0 0 0 1.75-.1l-.14 3.12q-.05 1.51-.05 3.1v4.13a100 100 0 0 0 .2 6.14 14 14 0 0 0-2.36 0 177 177 0 0 0 .2-6.14zm23.89 9.29q-.22.18-.7.43-.45.22-1.13.4-.65.17-1.46.32a11.17 11.17 0 0 1-5.2-.38q-1.61-.56-2.8-1.66a8 8 0 0 1-1.82-2.69 10 10 0 0 1-.64-3.65q0-2.04.64-3.62a8 8 0 0 1 1.85-2.71q1.2-1.11 2.86-1.68Q91.4 34 93.4 34q1.58 0 2.88.34 1.32.3 2.32.76-.19.34-.3.92-.13.57-.2.96l-.14.04a7.39 7.39 0 0 0-1.68-1.34 6 6 0 0 0-2.88-.8 8 8 0 0 0-2.64.46q-1.2.45-2.12 1.42a6.5 6.5 0 0 0-1.39 2.4q-.5 1.44-.5 3.43t.5 3.46q.5 1.44 1.4 2.4.9.94 2.1 1.39 1.23.45 2.65.46.86 0 1.58-.22a9 9 0 0 0 2.45-1.15l.84-.63.1.1zm8.4-9.32q0-1.58-.07-3.12l-.12-3.07 2.13.1a97 97 0 0 0 4.3 0l2.13-.1a4 4 0 0 0 0 1.44l-2.75-.19q-.7-.05-1.54-.07-.84-.05-2.02-.05-.02.77-.07 1.46-.03.7-.02 1.59v1.82l.02 1.35a67 67 0 0 0 5.83-.24 4 4 0 0 0 0 1.46 26 26 0 0 0-3.12-.17l-1.56-.02-1.15-.03q0 .22-.02.48v5.26q.02.9.05 1.34h1.68q.9 0 1.77-.02l1.66-.1q.78-.06 1.36-.19-.04.17-.07.39v.36q0 .38.08.62-1.08-.05-2.16-.05h-4.35q-1.08 0-2.18.05a202 202 0 0 0 .19-6.17z" fill="#ea6770"/>
</svg>
