<svg fill="none" xmlns="http://www.w3.org/2000/svg" viewBox="0 0 230 18">
  <path d="M.2 6.53q0-1.59-.08-3.1L0 .31l1.37.1A38 38 0 0 0 4.1.38Q4.77.32 5.47.31q1 0 1.92.2.91.19 1.59.64.69.43 1.08 1.15t.4 1.8q0 1.16-.52 2-.51.81-1.25 1.36a7 7 0 0 1-1.61.84q-.84.3-1.54.39l.8 1a292 292 0 0 0 4.9 6.13q.54.65.88.98a5 5 0 0 0-.72-.05H9.98q-.36 0-.7.05a132 132 0 0 0-4.53-5.95A26 26 0 0 0 3.07 8.9h-.91v1.76a100 100 0 0 0 .2 6.14 14 14 0 0 0-2.36 0 177 177 0 0 0 .2-6.14zM2.15 7.9q.33.07.72.1l.89.02q.74 0 1.53-.17.82-.16 1.5-.58.66-.43 1.1-1.13.45-.72.45-1.8A3 3 0 0 0 7.1 1.82q-.54-.36-1.2-.48-.64-.15-1.27-.14-.84 0-1.39.05-.55.02-.94.07l-.1 2.62q-.04 1.29-.04 2.59zm17.5-1.4q0-1.58-.07-3.12L19.47.31l2.14.1a97 97 0 0 0 4.3 0l2.13-.1a4 4 0 0 0 0 1.44l-2.76-.19q-.7-.05-1.54-.07-.84-.05-2.01-.05l-.07 1.46q-.03.7-.03 1.59V6.3l.03 1.35a67 67 0 0 0 5.83-.24 4 4 0 0 0 0 1.46 26 26 0 0 0-3.12-.17L22.8 8.7l-1.15-.03-.03.48v5.26l.05 1.34h1.68q.9 0 1.78-.02l1.65-.1q.8-.06 1.37-.19-.05.16-.07.39v.36q0 .38.07.62-1.08-.05-2.16-.05h-4.34q-1.08 0-2.19.05a202 202 0 0 0 .2-6.17zm29.21 9.32q-.2.19-.7.43-.45.21-1.12.4-.65.18-1.47.32a11.17 11.17 0 0 1-5.2-.38q-1.61-.56-2.79-1.66a8 8 0 0 1-1.82-2.69 10 10 0 0 1-.65-3.65q0-2.04.65-3.62a8 8 0 0 1 1.85-2.71q1.2-1.11 2.85-1.68Q42.12 0 44.12 0q1.59 0 2.88.34 1.32.3 2.33.76-.2.34-.31.92l-.2.96-.14.04A7.39 7.39 0 0 0 47 1.68a6 6 0 0 0-2.88-.8 8 8 0 0 0-2.64.46q-1.2.45-2.11 1.42a6.5 6.5 0 0 0-1.4 2.4q-.5 1.44-.5 3.43t.5 3.46q.5 1.44 1.4 2.4.9.94 2.11 1.39 1.23.46 2.64.46.86 0 1.58-.22a9 9 0 0 0 2.45-1.15q.51-.36.84-.63l.1.1zm7.06-7.23q0-2.04.65-3.62a8 8 0 0 1 1.84-2.71q1.2-1.11 2.86-1.68Q62.93 0 64.9 0q2 0 3.65.58 1.65.57 2.83 1.68 1.2 1.1 1.85 2.7a9 9 0 0 1 .67 3.63q0 2.04-.67 3.65a7.4 7.4 0 0 1-4.68 4.34q-1.65.53-3.65.53-1.96 0-3.62-.53a8 8 0 0 1-2.86-1.65 8 8 0 0 1-1.84-2.69 10 10 0 0 1-.65-3.65m15.62 0q0-2-.5-3.43a6 6 0 0 0-1.42-2.4 5.4 5.4 0 0 0-2.11-1.42A7 7 0 0 0 64.9.9q-1.39 0-2.61.45-1.2.45-2.11 1.42a6.5 6.5 0 0 0-1.4 2.4q-.5 1.44-.5 3.43t.5 3.46q.5 1.44 1.4 2.4.9.94 2.1 1.39 1.23.46 2.62.46a7 7 0 0 0 2.62-.46q1.23-.45 2.11-1.4a7 7 0 0 0 1.42-2.4q.5-1.45.5-3.45M83.6 0a255 255 0 0 0 6.89 13.22l.7-1.3 1.05-1.96 1.27-2.38 1.4-2.61L97.6 0h.32l.48 4.46.96 8.33q.23 2.02.53 4.01a4 4 0 0 0-.58-.05h-1.13q-.26 0-.55.05l-.53-6.2q-.26-3-.65-6.11h-.04q-1.66 3.02-3.27 6.02a94 94 0 0 0-3.02 6.24h-.22q-1.44-3.02-3.02-6.05L83.74 4.5h-.04l-.39 3.24a279 279 0 0 0-.65 6.62q-.12 1.5-.12 2.45a7 7 0 0 0-1.68 0 864 864 0 0 0 1.3-8.45A247 247 0 0 0 83.19 0zm26.13 0a255 255 0 0 0 6.89 13.22l.7-1.3 1.05-1.96 1.27-2.38 1.4-2.61 2.7-4.97h.32l.48 4.46.96 8.33q.24 2.02.52 4.01a4 4 0 0 0-.57-.05h-1.13q-.27 0-.55.05l-.53-6.2q-.27-3-.65-6.11h-.05q-1.65 3.02-3.26 6.02a94 94 0 0 0-3.02 6.24h-.22q-1.44-3.02-3.02-6.05-1.57-3.04-3.15-6.21h-.05q-.16 1.49-.38 3.24a279 279 0 0 0-.65 6.62q-.12 1.5-.12 2.45a7 7 0 0 0-1.68 0 864 864 0 0 0 1.3-8.45A247 247 0 0 0 109.32 0zm24.59 6.5q0-1.58-.07-3.12l-.12-3.07 2.13.1a97 97 0 0 0 4.3 0l2.14-.1a4 4 0 0 0 0 1.44l-2.76-.19q-.7-.05-1.54-.07-.84-.05-2.02-.05-.02.77-.07 1.46l-.02 1.59V6.3l.02 1.35a67 67 0 0 0 5.83-.24 4 4 0 0 0 0 1.46 26 26 0 0 0-3.12-.17l-1.56-.02-1.15-.03q0 .22-.02.48v5.26q.02.9.05 1.34h1.68q.9 0 1.77-.02l1.66-.1q.79-.06 1.37-.19-.05.16-.08.39v.36q0 .38.08.62-1.08-.05-2.16-.05h-4.35q-1.08 0-2.18.05a202 202 0 0 0 .19-6.17zm30.31 10.61q-2.76-3.19-5.88-6.53-3.12-3.36-6.24-6.67a131 131 0 0 0-.07 4.87v1.25q.02.75.02 1.56l.15 4.49q.02.53.05.72a7 7 0 0 0-1.73 0q.04-.24.1-.89.06-.64.11-1.53a276 276 0 0 0 .3-7.95 279 279 0 0 0-.08-6.43h.38l3.12 3.4 3.32 3.58 3.12 3.34q1.48 1.56 2.59 2.66V9.72a243 243 0 0 0-.2-9.4q.5.1.82.11.3 0 .77-.12a77 77 0 0 0-.24 3.84l-.1 2.35q-.04 1.16-.04 1.85v3.14l.02 1.8q.03.9.02 1.69l.03 1.34v.8zm9.97-10.58q0-1.59-.07-3.1L174.4.31l1.8.1a69 69 0 0 0 3.62-.03q.91-.06 1.83-.07 2.1 0 3.6.55 1.5.56 2.47 1.59.96 1 1.39 2.5.45 1.45.46 3.3a9 9 0 0 1-.84 4.06 7.6 7.6 0 0 1-2.12 2.64 8 8 0 0 1-2.83 1.44q-1.53.4-2.95.41-.81 0-1.6-.02l-1.62-.03h-1.6q-.8 0-1.61.05a177 177 0 0 0 .19-6.14zm1.97 4.13q0 2.58.14 5.08.51.12 1.37.2.87.04 1.78.04 1.32 0 2.64-.3 1.32-.32 2.35-1.18a6 6 0 0 0 1.7-2.36q.67-1.5.67-3.88 0-2.1-.52-3.44a5 5 0 0 0-3.56-3.19q-1.25-.3-2.73-.31a26 26 0 0 0-3.7.24q-.08 1.16-.12 2.42l-.02 2.55zm21.5-4.16q0-1.58-.06-3.12l-.12-3.07 2.13.1a97 97 0 0 0 4.3 0l2.14-.1a4 4 0 0 0 0 1.44l-2.77-.19q-.69-.05-1.53-.07-.84-.05-2.02-.05-.02.77-.07 1.46l-.02 1.59V6.3l.02 1.35a67 67 0 0 0 5.83-.24 4 4 0 0 0 0 1.46 26 26 0 0 0-3.12-.17l-1.56-.02-1.15-.03q0 .22-.02.48v5.26l.04 1.34h1.69q.9 0 1.77-.02l1.66-.1q.8-.06 1.36-.19-.04.16-.07.39v.36q0 .38.07.62-1.08-.05-2.16-.05h-4.34q-1.08 0-2.18.05a202 202 0 0 0 .19-6.17zm16.81.03q0-1.59-.07-3.1l-.12-3.12 1.8.1a69 69 0 0 0 3.62-.03q.92-.06 1.83-.07 2.1 0 3.6.55 1.5.56 2.47 1.59.96 1 1.39 2.5.46 1.45.46 3.3a9 9 0 0 1-.84 4.06 7.6 7.6 0 0 1-2.12 2.64 8 8 0 0 1-2.83 1.44q-1.53.4-2.95.41-.81 0-1.6-.02l-1.62-.03h-1.6q-.8 0-1.61.05a177 177 0 0 0 .19-6.14zm1.97 4.13q0 2.58.14 5.08.51.12 1.37.2.87.04 1.78.04 1.32 0 2.64-.3 1.32-.32 2.35-1.18a6 6 0 0 0 1.7-2.36q.67-1.5.67-3.88 0-2.1-.52-3.44a5 5 0 0 0-3.56-3.19q-1.25-.3-2.73-.31a26 26 0 0 0-3.7.24q-.08 1.16-.12 2.42l-.02 2.55z" fill="#ea6770"/>
</svg>
