<svg fill="none" xmlns="http://www.w3.org/2000/svg" viewBox="0 0 114 115">
  <path d="M22.61 95.23q0-2.92-.08-5.8l-1.54.03q-.78 0-1.6.05a41 41 0 0 0-2.85.23q.14-.51.14-.9 0-.3-.14-.87l3.6.12a227 227 0 0 0 10.84-.12q-.14.57-.14.9 0 .36.14.87-.59-.08-1.34-.14-.73-.06-1.54-.09-.78-.05-1.6-.05l-1.5-.03q-.1 2.88-.1 5.8v4.81a116 116 0 0 0 .23 7.17 16 16 0 0 0-2.74 0 207 207 0 0 0 .22-7.17zM35 100.6q0 1.18.2 2.27.22 1.1.72 1.96.51.84 1.35 1.34t2.07.5 2.07-.5 1.35-1.34q.5-.87.7-1.96a11 11 0 0 0 0-4.54 6 6 0 0 0-.7-1.93 4 4 0 0 0-1.35-1.37 4 4 0 0 0-2.07-.5q-1.23 0-2.07.5-.84.51-1.35 1.37-.5.84-.72 1.93-.2 1.1-.2 2.27m-2.46 0q0-1.9.58-3.22a6 6 0 0 1 3.78-3.36 8 8 0 0 1 4.88 0 6 6 0 0 1 3.75 3.36q.6 1.32.61 3.22 0 1.9-.61 3.25-.6 1.32-1.57 2.16-.98.81-2.18 1.14a9 9 0 0 1-4.88 0 5.9 5.9 0 0 1-3.78-3.3q-.58-1.35-.58-3.25m19.2 1.46-.03-2.07a86 86 0 0 0-.2-6.08q.78.14 1.26.14t1.26-.14a20 20 0 0 0-.22 2.74h.05a5.2 5.2 0 0 1 2.89-2.71q.8-.3 1.84-.31a5.6 5.6 0 0 1 3.92 1.65q.82.84 1.3 2.16.5 1.28.5 3.08t-.54 3.1q-.53 1.32-1.4 2.19-.84.86-1.93 1.29-1.09.39-2.18.39a4.5 4.5 0 0 1-4.4-2.66h-.05v3.76l.1 4.28.12 1.7q-.78-.14-1.26-.14t-1.26.14q.06-.7.08-1.7a66 66 0 0 0 .12-4.29q.03-1.1.02-1.99zm10.1-1.57a9 9 0 0 0-.36-2.77 5 5 0 0 0-.9-1.74 3 3 0 0 0-1.23-.92 4 4 0 0 0-3.3.22q-.8.48-1.3 1.29a6 6 0 0 0-.72 1.88 11 11 0 0 0-.22 2.26q0 5.83 4.08 5.83a3.2 3.2 0 0 0 2.97-1.74q.5-.84.73-1.93.25-1.12.25-2.38m8.9-11.45q0-.6.42-1.01t1-.42q.6 0 1.01.42t.42 1q0 .6-.42 1.02t-1 .42q-.6 0-1.01-.42a1.4 1.4 0 0 1-.42-1.01m.39 10.1a65 65 0 0 0-.23-5.23q.8.14 1.26.14.48 0 1.26-.14-.13 1.2-.2 2.6l-.02 2.64v2.9l.03 2.67q.06 1.36.2 2.49a15 15 0 0 0-2.53 0q.15-1.12.17-2.5.06-1.39.06-2.65zm8.91 1.46q0-1.82.62-3.13a6.3 6.3 0 0 1 3.89-3.42 8.85 8.85 0 0 1 5.38-.03q1.22.38 1.76.84-.2.42-.36.9-.15.44-.26.95h-.22a4 4 0 0 0-.53-.73q-.35-.4-.81-.7-.45-.33-1.01-.53a3 3 0 0 0-1.23-.22q-1.26 0-2.19.47-.9.45-1.48 1.26a6 6 0 0 0-.84 1.93q-.25 1.1-.25 2.38 0 2.89 1.23 4.37 1.23 1.46 3.61 1.46a5 5 0 0 0 2.3-.56 6 6 0 0 0 1.9-1.43l.14.08q-.15.67-.17 1.38-.84.67-2.1 1.14-1.23.48-2.57.48-1.2 0-2.44-.34a6 6 0 0 1-2.18-1.17 6 6 0 0 1-1.6-2.16 8 8 0 0 1-.59-3.22m17.61 4q.15.3.42.62.3.34.7.65.43.27.93.47a3.2 3.2 0 0 0 2.13.03q.5-.16.86-.48.4-.3.62-.78t.22-1.1q0-.85-.5-1.3a3.4 3.4 0 0 0-1.2-.76q-.73-.3-1.6-.54a7 7 0 0 1-1.6-.61q-.73-.42-1.23-1.1a3 3 0 0 1-.47-1.84q0-.93.3-1.68a3.7 3.7 0 0 1 2.36-2.21 6 6 0 0 1 1.98-.34q1.04 0 1.74.28.72.29 1.37.5a7.33 7.33 0 0 0-.67 1.99h-.34a2.7 2.7 0 0 0-.86-1.2 2.64 2.64 0 0 0-2.44-.4q-.42.15-.76.43a2.2 2.2 0 0 0-.78 1.79q0 .9.48 1.4.5.48 1.23.75.72.3 1.6.5.85.2 1.59.6.73.36 1.2 1.03.5.68.5 1.85 0 .8-.36 1.6-.34.79-1 1.42t-1.57.98q-.93.34-2.1.34-1.29 0-2.16-.25a7 7 0 0 1-1.45-.59q.16-.36.33-.98.2-.64.2-1.06z" fill="#ea6770"/>
  <g clip-path="url(#a)" fill-rule="evenodd" clip-rule="evenodd">
    <path d="m42.58 25.02.36-.13c1.86.24 3.34-.68 4.9-1.33.66-.27 1.3-.73 2.01-.76.66-.02-.02-.39.21-.44 1.78.04 3.54.43 5.31.56.6.75.73 1.48 0 2.2-.3.28-.39.65-.39 1.05-.08.5.06 1.04-.26 1.5-.98.14-1.19-.7-1.68-1.19-.43-1-1.24-.97-2.12-.76-1.17.55-2.62.68-3.26 1.97a5.7 5.7 0 0 0-3.8 1.35c-.84.75-1.96 1.3-2.95 1.98a36 36 0 0 0-5.48 4.74c-.19.2-.26.43-.34.68-.15.52-.47.83-1.1.54-.91-1.06-.1-2.08-.05-3.12.01-.5.34-.9.38-1.4.24-.56.65-1 1.12-1.4a7 7 0 0 0 2.01-2.48q.52-.66 1.23-1.12c1.22-.92 2.63-1.57 3.9-2.44" fill="#ec7189"/>
    <path d="M45.7 49.77c.11-.42 0-.9.3-1.26q.96.14.7 1.1c-.14-1.92 1.06-4.06.86-6.47-.14-1.68.44-3.32.6-5 .59-.97 1.6-1.79 1.25-3.12l-.1-.36c-.01-.33.05-.63.3-.86a.6.6 0 0 1 .38-.08c.34.04.62-.08.92-.2 1.14-.47 1.67-.28 2.07.7.35.83-.09 1.54-1.14 1.85-.3.09-.64.04-.94.26-.12.5.31.79.58 1.1.74.82.78 1.6.01 2.33-.55.51-.65.98-.13 1.58.25.3.29.66.23 1.01-.14.9-.11 1.86-.6 2.68 1.23.94-.3 1.65-.15 2.5l-.28 1.56c-.85 3.45-3.14 6.18-4.9 9.16-.28.48-.66.97-1.43.67-.74-.53-.64-1.18-.45-1.9q.77-2.82 1.69-5.6c.17-.52.36-1.07.23-1.65" fill="#ec6f88"/>
    <path d="M83.1 25.2c-1.47.92-3.09 1.56-4.68 2.26q-.66.28-1.3.05l-.1-.15c-.13-.63-1.48-.63-.98-1.6-.35.03-.66.16-1.07.16.38.59 1.35.4 1.36 1.13 0 .43-.25.82-.74.97-.97-.23-1.94-.07-2.89 0-1.93.18-3.76-.3-5.6-.73-1.72-.39-3.53-.29-5.17-1.05-.96-.29-1.9-.65-2.2.78-.1.5-.6.93-1.27.48-.76-.5-.72-1.32-.18-1.68.94-.62.94-1.35.8-2.26-.1-.72.2-1.05.93-.5.27.2.39-.11.6-.03q.3.01.52.22c.29.38.62.62 1.15.65 1.4.05 2.79.2 4.16.36 2.36.28 4.67-.04 6.93-.4 2.37-.36 4.83-.44 7-1.51l.17-.1q.15-.1.35-.17c.65-.27 1.3-.56 2-.72s1.25-.02 1.42.77c-.01.55-.07 1.1.1 1.65a.7.7 0 0 1-.15.51c-.3.42-.84.54-1.16.92" fill="#ec728b"/>
    <path d="M60.62 23.19c-.48.5-.81-.27-1.26-.2.03.4.03.79.1 1.16.16.76.37 1.48-.8 1.66-.7.1.02.85-.43 1.1.2.2.37.49.6.54.37.1.64-.27.65-.53.08-1.53 1.09-1.31 2.16-1.03.05.54-.46.2-.65.35-1.34.16-.76 1.13-.63 1.71.18.8.71 1.51 1.42 2.06q.15.15.17.37c-.02.62-.42.95-1.02 1.1-.87-.03-.95-.85-1.42-1.29-.74-.73-1.57-1.39-1.93-2.4-.14-.36-.48-.45-.79-.23-1.42 1.05-2.57 2.27-2.85 4.08-.42 2.75-1.12 5.44-1.31 8.23-.02.31-.03.64.2.88.54.58.38 1.29.1 1.72-.98 1.46-1.16 3.16-1.72 4.74-.07.18-.16.3-.37.33-.3-.57.08-.98.29-1.46.26-.6.23-1.08-.88-.66 1.2-1 1.3-2.57.91-3.32-.77-1.45-.26-2.18.48-3.26.57-.83-.6-1.52-1.11-2.04-.84-.84-.16-.8.36-.93.35-.08.72-.08 1.09-.13.54-.08.74-.53.84-.92.12-.5-.33-.91-.65-1.26-.43-.44-.71.22-1.07.2-.38-.02-.7 1.13-1.11.03-.19-.37-.02-.62.27-.84.23-.14.53-.18.72-.36.5-.44 1.66.21 1.74-.85.05-.66.45-1.25.28-1.94.5-.7 1.13-1.33 1.6-2.07.06-.55-.14-1.12.12-1.65q.2-.1.4-.05c.83.3 1.66.4 2.18-.39.56-.84.16-1.66-.39-2.4-.28-.39-.74-.67-.76-1.2.42-.54 1.05-.08 1.55-.25.85.38 1.79.3 2.66.56a1 1 0 0 1 .34.27q.16.3-.08.57" fill="#ec6f88"/>
    <path d="M74.46 39.99c.28.4.76.76.53 1.34q-.15.78-1.06.72c.33.2.71.3.83.69-.54 1.91-1.36 2.25-3.27 1.31q-.31-.15-.66-.18c-.36-.04-.78-.03-.96-.41-.26-.53.44-.55.55-.94-.42.43-1.03.27-1.54.52-.48.24-.8-.32-.91-.76-.15-.54-.37-.98-1.05-1.05-.2-.26-.37-.52-.24-.86.19-.38.53-.59.93-.71.37-.12.42-.33.4-.7-.1-1.25.16-1.35 1.49-.66.14.1.3.22.47.26.3.07.65.26.87-.07.2-.31-.08-.52-.28-.78-.47-.63-1.34-1.26-.3-2.05 1.67.64 2.5 2.03 3.39 3.35.2.38.41.74.8.98" fill="#ef8d9d"/>
    <path d="M62.2 69.8c.96-1.09 1.96-2.14 2.86-3.26 1.95-2.4 2.58-5.31 2.94-8.27.4-3.33.58-6.67.13-10.05-.21-1.58-.97-3.04-1.08-4.63-.04-.43-.13-.86-.1-1.3-.01-.46.29-.36.58-.29.5 1.58 1.9 2.78 2.17 4.45a4.2 4.2 0 0 0-.4 2.74c.3 2.02.24 4.06.2 6.1-.24 2.07-1 4.1-.93 6.16.08 1.86-1.08 2.95-1.8 4.31-.8 1.5-1.45 3.1-2.99 4.1-.46.3-.8.85-1.52.69-.33-.25-.22-.5-.06-.75" fill="#eb6b86"/>
    <path d="M62.2 69.8c0 .24-.04.48.16.68.26.74-.65.7-.85 1.15-.2.47-.69.77-1.07 1.16 1.47.7 3.38.32 7.75-1.5 1.23-.5 2-1.34 2.6-2.48 1.11-2.1 2.5-4.06 2.87-6.47.17-1.37 1.09-2.45 1.44-3.75.58-2.14.6-4.36.76-6.55.04-.52-.07-1.05.15-1.54.13-.2.27-.38.56-.28.76 4.04-.2 7.8-1.63 11.49-.21.56-.46 1.1-.6 1.7-.3 1.53-.59 3.07-1.86 4.22-.32.28-.6.7-.7 1.1-.46 1.95-1.96 2.9-3.74 3.6-1.97.8-3.88 1.77-6.13 1.74a8 8 0 0 1-1.93-.22c-.55-.15-1.27-.3-1.37-.99-.13-.74.65-.69 1.08-.91 1.03-.53 1.54-1.58 2.5-2.15z" fill="#eb6784"/>
    <path d="M70.24 35.76c-.49.6-.04 1.2.32 1.52.57.5 1.18 1 .55 1.6-.52.48-1.27.12-1.8-.38-.2-.18.37-.4.06-.42a2.8 2.8 0 0 1-2.17-1.21c.23 1.1-.23 1.4-1.19 1.2s-1.42-.66-.97-1.58c.27-.56.2-1.01-.4-1.35q-.28-.2-.48.54a.6.6 0 0 1-.29.21c-.42-.35-.56-.94-1.13-1.16.1-.31.37-.62-.1-.94-.07-.05.15-.27.31-.36.77-.03 1.27.77 2.1.65-.08-.43.32-1.1-.74-.99-.39.04-.63-.33-.72-.7-.1-.43.17-.62.58-.7 2.33.92 4.6 1.95 6.07 4.07" fill="#f2a1ad"/>
    <path d="m68.76 16.25.31-.16a5.8 5.8 0 0 0 3.68-.6c1.42-.38 2.93-.34 4.34-.78.63.52.3.94-.2 1.18-.44.2-.64.5-.77.9-.55.23-1.03-.46-1.72-.05.63.17 1.33-.09 1.68.52-.15.53-.68.52-1.1.64-1.53.43-3.07.79-4.71.7q-.2-.27.02-.52c.64-.29 1.33-.5 1.99-.75-.64.23-1.29.43-1.9.7-.63.54-1.67.44-2.16 1.2q-.26.28-.66.19c-.6-.25-1.25.1-1.83-.22-.4-.28-.73-.6-.71-1.1.03-.36.4-.5.56-.78h-.01c1.18-.08 2.16-.64 3.19-1.07" fill="#ed7d92"/>
    <path d="M45.7 49.77c.89 1.08.13 2.11-.23 2.98-.63 1.58-.74 3.3-1.5 4.81-.26.53.25.89.4 1.32a.5.5 0 0 1-.43.33c-1.29.03-2.32-.55-3.33-1.27-.97-.7-1.02-1.31.06-1.82.48-.23 1.1-.27 1.08-.97a.4.4 0 0 1 .27-.2c.58 0 1.53.44 1.06-.8.3-.78.55-1.52 1.36-2.08.6-.4.72-1.31.9-2.06z" fill="#ef8899"/>
    <path d="m44.04 59.05.33-.17c1.43-.7 1.94-2.06 2.53-3.34.24-.51.3-1.02.95-1.31.33-.16.66-.7.65-1.07-.01-.75.34-1.15.92-1.58.48-.36.82-.9.67-1.6-.08-.37-.16-.83.47-.89.1.86-.2 1.61-.52 2.38-1.76 4.07-4.64 7.48-6.97 11.22-.8 1.29-2.23 1.94-3.68 2.5-.36-.12-.29-.38-.23-.63.65-.76 1.5-1.32 2.23-2.01a9 9 0 0 0 1.83-2.51c.19-.4.42-.75.82-1" fill="#eb6784"/>
    <path d="M65.58 17.32c.05.36-.2.56-.42.78-2.22 1.7-4.86 2.71-7.42 3.86-.48.24-1.08-.13-1.55.21 0 .48-.08.9-.74.86-1.6.6-3.06-.46-4.62-.47-.25 0-.5-.19-.77-.01-1 .78-2.32.9-3.44 1.43-.3.13-.64.02-.83-.3 1.7-.95 3.42-1.8 5.58-1.38.8.15 1.73.17 2.46-.08 1.7-.58 3.48-.92 5.18-1.6 2.32-.93 4.12-2.66 6.57-3.3" fill="#eb6582"/>
    <path d="M64.69 34.98c.96-.05 1.03.61.88 1.18-.42 1.5-.46 1.49 1.31 1.68.26-.31-.15-.42-.25-.62q-.2-.42.2-.67a.8.8 0 0 1 .78-.04c.55.29.2 1.29 1.14 1.3.56.01 1.16-.16 1.66.32-.27.5-.84.01-1.1.37-.33-.24-.67-.64-1.09-.3-.4.32.08.63.24.9.36.57.2.75-.46.8-.38.03-.75.28-1.12.43-.65-.04-.55-.6-.75-.95-.26-.46-.3-1.02-.87-1.3-1.03-.42-1.1-1.37-1.39-2.2l.1-.28c.33-.1.36-.55.72-.62" fill="#f197a5"/>
    <path d="m60.99 26.24.65-.35c2.8.78 5.69 1.1 8.53 1.7 1.82.4 3.78.1 5.69.11.35-.26.64-.76 1.22-.26l.03.07c-1.22 1.27-2.96.77-4.4.8-4 .07-7.93-.72-11.72-2.07" fill="#eb6b86"/>
    <path d="M45.33 50c.18 1.01-.12 1.75-.99 2.42-.55.43-.78 1.24-1.15 1.87-.05.8-.81.58-1.3.77l-.02.02c-1.6 1.15-2.65 2.96-4.7 3.62-.7.23-1.12.85-1.72 1.22-.41.25-.83.57-1.35.24-.21-.14-.1-.38.05-.55 1.85-1.26 3.58-2.69 5.56-3.74 2.61-1.39 4.1-3.6 5.62-5.86" fill="#ec6d87"/>
    <path d="m39.3 64.66.1.53a9.6 9.6 0 0 1-3.84 1.8c-.74.1-1.45.58-2.25.1-.38-.74.34-1.06.61-1.54q.12-.16.28-.26c.32-.2.67-.03 1.1-.02-.4-.11-.71-.22-.87-.55a.5.5 0 0 1 .04-.36c.8-.42 1.7-.17 2.55-.2.71.39 1.48.52 2.28.5" fill="#ec7189"/>
    <path d="M70.24 35.76a26 26 0 0 0-4.14-3c-.67-.39-1.31-.82-2.11-.91-1-.24-1.69-.86-2.24-1.65v-.1l.03-.09c4.41 2.22 8.99 4.25 11.86 8.45.11.3.11.57-.2.76a11 11 0 0 0-3.2-3.46" fill="#f094a2"/>
    <path d="M48.45 38.09c.05 2-.74 3.87-.46 5.97.3 2.2-1.14 4.23-1.27 6.65-.62-.82.76-1.83-.71-2.2 1.1-2.04.97-4.34 1.34-6.54q.2-1.21.43-2.42c.15-.52-.28-1.3.67-1.46" fill="#ec6d87"/>
    <path d="m84.1 24.29.17-.48c.47-1.16.84-2.33.56-3.62-.18-1.36-.85-2.57-1.35-3.83-.39-1-1.4-1.07-2.17-1.5-1.06-.44-2.14.3-3.2-.14-.18-.12-.31-.27-.22-.5 1.34-.18 2.66-.3 4.05.03 2.35.56 2.73 2.53 3.37 4.17.57 1.45.81 3.02.31 4.63-.23.74-.53 1.11-1.24 1.31q-.1.07-.2.01-.08-.05-.07-.08" fill="#eb6784"/>
    <path d="M44.37 42.06a6.7 6.7 0 0 1-4.99 3.5c-1.53.29-3.04.02-4.35-.93-.73-.52-1.28-1.19-.9-2.14.22-.15.35 0 .5.15 1.27 2.4 4.99 2.89 7.1.94.78-.71 1.42-1.57 2.42-2.06q.22.02.35.18-.01.2-.13.36" fill="#eb6481"/>
    <path d="M34.15 59.61c.38 1.05.78.06 1.17.05 1.91.1 2.37.57 1.77 1.8-.64.24-1.38.36-1.56 1.18-.03.14-.31.1-.48.02-.64-.71-1.65-.77-2.4-1.28-.28-.23-.75-.33-.69-.81l.42-.2c.14-.23.66.42.61-.22z" fill="#ee8497"/>
    <path d="M34.5 32.51c.44.56-.38.84-.29 1.32-.17.77-.66 1.46-.56 2.3-.08.72-.56 1.36-.4 2.13.12 1.07.85 2.17.02 3.22-1.48-2.22-1.28-4.48-.4-6.73.3-.71.73-1.37 1.1-2.06q.17-.3.52-.17" fill="#eb6985"/>
    <path d="M31.96 60.57c.15.3.64.23.71.6-2.07.94-4.21 1.51-6.58.95-.78-.28-1.34.32-2.04.4-.55-.06-.64-.42-.63-.84 1.08-.7 2.35-.46 3.55-.47 1.7-.01 3.38-.15 5-.64" fill="#ec7189"/>
    <path d="m34.44 42.73-.31-.24-.4-.4c-.2-.89-.1-1.8-.27-2.69-.07-.33.09-.63.42-.74.42-.13.4.21.43.46.77-.24 1.02.4 1.44.77.22.3.5.57.7.9 0 1.37-.77 2.11-2 1.94" fill="#ef8f9e"/>
    <path d="M45.79 23.67c1.56.02 2.82-.85 4.27-1.12.15.1.6.14.11.35q-2.43 1.09-4.91 2.11c-.76.32-1.56.4-2.32-.12q1.42-.6 2.85-1.22" fill="#ec768d"/>
    <path d="M33.3 66.99c.77.44 1.5-.25 2.26 0a7 7 0 0 1-5.46.06c-2.34-.84-4.86-1.36-6.65-3.27q-.06-.2.13-.31c.74-.18 1.12.34 1.56.74.33.32.79.39 1.21.54.49.2 1 .38 1.41.72q2.71.98 5.54 1.52" fill="#ec728b"/>
    <path d="M35.62 40.07c-.21-.17-.49-.31-.63-.52-.28-.4-.81-.33-1.1-.66-.37.37-.29.83-.08 1.21.39.71-.17 1.33-.08 2-.46-.01-.49-.3-.46-.63.18-1.15-.22-2.26-.35-3.38.2-.43.2-1.04.93-1.05 1.01.16 1.19 1.2 1.93 1.65.42.32.39.72.3 1.14q-.15.25-.46.24" fill="#ed788e"/>
    <path d="m76.58 50.22-.32.2c-.75-.35-.36-1.02-.54-1.54-.14-2.02-.86-3.98-.95-6 .06-.38.28-.56.7-.46a29 29 0 0 1 1.1 7.8" fill="#ec6f88"/>
    <path d="m44.37 42.06.06-.35a.6.6 0 0 1 .03-.74c1.23-1.63 1.97-3.59 3.56-4.99.52-.34.5-1.3 1.46-1.16.38 1.46-.6 2.1-1.73 2.66-1.22 1.46-1.68 3.44-3.38 4.58" fill="#ec6d87"/>
    <path d="m77.89 14.22.25.31c-.18.5-.55.5-.98.3-1.37.82-2.96.66-4.48.8-.3.02-.32-.11-.22-.32 1.76-.55 3.61-.76 5.43-1.09" fill="#ec6f88"/>
    <path d="M63.01 33.5c-.26.36.39.95-.27 1.23-1.3-1.38-2.59-2.76-3.23-4.54.72.09.78.93 1.39 1.14.76.67 1.5 1.36 2.11 2.16" fill="#f3abb4"/>
    <path d="m34.5 32.51-.53.18 1.73-2.83c.42-.26.74-.62 1.07-.97.26-.26.5-.54.92-.2-.37 1.21-1.28 2.03-2.25 2.77-.39.3-.73.62-.95 1.05" fill="#ee8194"/>
    <path d="M25 64.46c-.52-.26-.76-.94-1.47-.91-1.24-.72-1.27-1-.21-1.71q0-.11.1-.16c.2.23.25.6.64.67.37.3.97.15 1.26.62q.1.14.14.32c.07.29.28.55.28.84 0 .51-.23.7-.73.34" fill="#ef8f9e"/>
    <path d="M47.75 37.48c.68-.82 1.67-1.46 1.74-2.66.95.53.26 1.2.12 1.72-.17.6-.53 1.2-1.16 1.54-.63.31-.4 1-.67 1.47-.33-.7.5-1.37-.03-2.07" fill="#ed7a8f"/>
    <path d="M37.69 28.7c-.93-.01-1.04 1.2-2 1.16 1.04-1.35 2.08-2.68 3.68-3.5.21.6-.31.92-.51 1.36z" fill="#f2a3ae"/>
    <path d="M38.86 27.72c0-.51.22-.95.51-1.36q1.52-.82 3.2-1.34c-.33.95-1.42 1.06-2.09 1.65-.47.42-1.07.7-1.62 1.05" fill="#ef8d9d"/>
    <path d="m72.46 15.3.22.33c-1.06.96-2.24 1.27-3.6.46a10 10 0 0 1 3.38-.78" fill="#ec6f88"/>
    <path d="M65.26 38.08c1.28.29.94 1.59 1.62 2.25l.11.82c.29.27 1.18.22.59.95-.25-.04-.47-.01-.64.19z" fill="#ed788e"/>
    <path d="M23.32 61.84c-.67.62-.42 1.18.2 1.71l-.07.23q-.38-.15-.75-.34c-.45-.28-1.14-.48-.9-1.15.25-.65.89-.62 1.51-.45" fill="#f197a5"/>
    <path d="M68.76 16.25a2.95 2.95 0 0 1-3.2 1.06c.96-.62 2-1.02 3.2-1.06" fill="#eb6784"/>
    <path d="M75.47 42.42q-.3.2-.56.4-.12.1-.21.04-.1-.06-.08-.1c-.42-.53-1.33-.44-1.62-1.23.63-.32 1.61 1.3 1.99-.2.46.25.4.7.48 1.1" fill="#ed7b91"/>
    <path d="m73.43 39.22.2-.76q.61.68.83 1.53-.8-.05-1.02-.77" fill="#f3acb6"/>
    <path d="M33 60.15c.26.15.65.08.84.53-.58.3-1-.04-1.45-.31.03-.46.39-.17.6-.22" fill="#ec6f88"/>
    <path d="m84.1 24.29.28.07c-.26.5-.64.84-1.28.85.05-.6.51-.77 1-.92" fill="#ec6d87"/>
    <path d="M35.65 38.82c-.2.36-.4.27-.49-.06-.18-.66-.65-1.1-1.18-1.5l-.07-.15.13-.1c.24-.1.63-.16.7-.34.9-2.1 2.7-3.38 4.46-4.76.74-.59 1.54-1.15 2.29-1.73a18 18 0 0 1 4.92-2.9c.59-.2.83.29 1.26.33l.09.18c-.17.51-.64.72-1.09.91-2.78 1.16-5.18 2.89-7.62 4.53a14 14 0 0 0-3.21 3.32c-.55.72.32 1.56-.18 2.27" fill="#ec6f88"/>
    <path d="M54.59 27.73c.1 1.02-.77 1.44-1.33 2.05-.78 1.26-1.44 2.6-2.85 3.36-.32.1-.34.4-.43.65l-.23.01c-.41.62-.93.51-1.46.12-.56-.4-.2-.72.09-1.06.16-.18.04-.5.27-.69 1.17-.16 1.92-.67 1.92-1.92 0-.38.26-.76.57-1 .42-.31.64-.53.34-1.14-.4-.8.47-1.62 1.75-1.83z" fill="#ef899b"/>
    <path d="m55.45 23.03.74-.86c.64.54 1.38.95 1.57 1.89.16.85.33 1.65-.5 2.21-.86.57-1.72.42-2.54-.2-.08-.29-.3-.71 0-.84 1.09-.49.76-1.38.73-2.2" fill="#ee8698"/>
    <path d="M53.23 26.28c-.36.78-2.62.78-1.02 2.38.25.25-.03.44-.33.52-.82.23-1.04.88-1.11 1.57-.14 1.4-.52 1.68-2.08 1.46l-.12-.17c.35-1.26 1.17-2.3 1.7-3.47.15-.31.42-.57.44-.93.05-.4.42-.66.5-1.04-.44-.12-.87.36-1.3-.06-.09-.68.65-.7.92-1.1 1-.25 2.01-.59 2.4.84" fill="#ed7b91"/>
    <path d="M50.83 25.44c-.05.53-.75.6-.86 1.1-.42.9-1.1 1.4-2.21 1.17l-.1-.1c-.21-1 .67-1.2 1.3-1.5.59-.3 1.24-.45 1.87-.67M33.34 36.3c.32-.8.13-1.8.87-2.48.04 1.07-.59 2.1-.17 3.2-.75.2-.52-.42-.7-.71" fill="#ec6f88"/>
    <path d="M48.7 32.21c.03.28.13.56.1.83-.01.25-.9.12-.4.62.34.33.87.47 1.35.14l-.27 1.02c-.7.2-.61 1.02-1.16 1.34-.43-.73-1.38-1.02-1.74-1.81.31-1.05.93-1.85 2.08-2.17z" fill="#ed7a8f"/>
    <path d="M81.48 14.6c2.93.92 3.08 3.4 3.67 5.64-.04.36-.4.59-.27 1.07.14.47-.1.93-.8.81-.16-.66-.64-.65-1.14-.48q-1.05.37-2.09.79c.1-1.41-.12-2.8-.56-4.16-.13-.42-.13-.96-.7-1.18-.76-1.22.07-2.3 1.9-2.49" fill="#ee8296"/>
    <path d="M61.06 23.42c4.8.94 9.55.83 14.26-.05q2.6-.51 5.2-1.05c-.4.77-1.15.94-1.98 1.06-1.39.2-2.75.5-4.14.71q-1.27.21-2.56.3c-.78.05-1.57.03-2.24.47-.1.06-.27.12-.38.09-2.36-.8-4.8-.28-7.2-.73-.43-.08-1.07-.07-.96-.8" fill="#eb6784"/>
    <path d="M77.08 27.44c-.48-.13-.81.2-1.22.26-.04-.4.79-1.17-.57-1.02-.54.06-.9-.42-.86-.85.03-.58.48-.46.92-.26.52.25.82-.79 1.45-.22-.98 1.02-.96 1.05 1.03 1.6-.09.39-.57.24-.75.49" fill="#ed7a8f"/>
    <path d="M84.07 22.12c.35-.14.78-.55.6-.7-1.11-.95.08-.9.49-1.19.4 1.18-.08 2.25-.34 3.34-.06.25-.31.25-.55.24-.7-.51-.29-1.11-.2-1.69" fill="#ed788e"/>
    <path d="M81.78 24.46c-1.34.9-2.64.8-3.96.56 1.23-.31 2.32-1.36 3.96-.56" fill="#ed7a8f"/>
    <path d="M79.8 17.03a5.9 5.9 0 0 1 1.05 5.4l-.33-.13c.31-1.72-.48-3.34-.78-5q-.16-.17.05-.27" fill="#ec6f88"/>
    <path d="M57.74 21.96c2.28-1.6 4.92-2.63 7.42-3.86l.65.98c-.13.71-.96.67-1.35 1.1-1.3.86-2.48 1.9-4.03 2.42-.87-.35-1.96.27-2.69-.64" fill="#ef8d9d"/>
    <path d="M63.01 33.5c-1-.47-1.82-1.1-2.11-2.17.48-.24.83-.57.85-1.13.82.47 1.6.96 2.24 1.65-.4.7-.18 1.06.65.9.75-.12 1.14.04.86.77-.49 1.25-.86 1.23-2.49-.03" fill="#f197a5"/>
    <path d="M50.41 33.14c1.03-1.06 1.66-2.42 2.85-3.36.36.88-.4 1.67-.14 2.55.08.27-.26.56-.52.43-.88-.43-1.45.29-2.19.37" fill="#ec6f88"/>
    <path d="M60.43 22.6c1.31-.89 2.57-1.84 4.03-2.51q.21-.06.32.13c-1.22 1-2.59 1.82-4.03 2.52z" fill="#ec768d"/>
    <path d="M52.5 41.33c.43.62.07 1.03-.22 1.65q-.36-1.03.21-1.65" fill="#ec6f88"/>
    <path d="m74.62 42.76.29.05c.55 1.96.82 3.95 1.13 5.94-.3.68-.82.54-1.34.23-.48-.29-.98-.4-1.37-.01-.8.8-1.63.52-2.5.08a5 5 0 0 1-1.36-2.7c-.2-.88-.89-1.51-1.32-2.28-.36-.62-.7-1.24-.57-1.97.22-.53-.53-.55-.6-.94.97-.54 1.12.01 1.22.77.05.36.03.82.55.98-.06-1.08 1.14.12 1.1-.46-.05-.79.36-.5.72-.4.3.07.54.27.53.55 0 .47-.44.45-.8.5-.1.01-.19.13-.46.34 1.44.02 2.5.86 3.8.73.15-.02.44.07.35-.1-.34-.72.71-.75.63-1.3" fill="#ee8698"/>
    <path d="M68.16 71.6c-2.32.84-4.49 2.12-7.17 1.87-.42-.03-.86.07-1.06-.41-.24-.57.36-.56.62-.81.6-.59 1.03-1.34 1.81-1.77 2.61-1.56 3.49-4.33 5.13-6.57.97-1.33.38-2.65.81-3.9.53-1.57.56-3.24.84-4.86.85.48.58 1.27.43 1.85-.34 1.34.67 2.04 1.43 2.82.53.54.8-.03.93-.45a3.4 3.4 0 0 0-.4-2.66c-.6-1.09-.39-2.03.42-2.88q.29-.26.62-.08c1.07 1.2.8 2.66.87 4.02.07 1.47-.18 2.93-.39 4.4q-.25 1.4-.46 2.82c-.36 2.22-1.71 3.94-3.23 5.55q-.57.56-1.2 1.05" fill="#ec7189"/>
    <path d="M72.38 53.77c-1.25 1.2-.86 2.45-.1 3.8.4.69.19 1.55-.06 2.24-.33.92-.88.72-1.65.18-1.94-1.35-1.04-3.22-1.43-4.84 0-2.07.14-4.15-.26-6.22-.2-1-.11-1.84.6-2.58l1.4 2.5a8 8 0 0 1 1.76 3.62c.1.45.2.95-.26 1.3" fill="#ec728b"/>
    <path d="M72.38 53.77a5.6 5.6 0 0 0-.93-3.46c-.27-.44-.38-.97-.57-1.46.95.43 1.78.38 2.52-.36.41-.4.94-.28 1.34.15.43.45.85.43 1.3.1l.22 1.69c.08 2.57-.18 5.1-.61 7.62-.27 1.6-1.44 2.85-1.64 4.47-.45-.1-.94-.03-1.35-.33.28-2.8.93-5.61-.28-8.42" fill="#ed7f93"/>
    <path d="M72.66 62.2c.48 0 1.03-.35 1.35.32-.38 2.93-2.34 5.18-3.6 7.72-.39.78-1.35 1.12-2.25 1.35.34-1.13 1.44-1.7 2.16-2.55a9.5 9.5 0 0 0 2.15-5.83c.02-.34.13-.68.2-1.02" fill="#ed788e"/>
    <path d="M64.69 34.98c-.1.35-.18.74-.73.62.4-.35-.43-.76-.04-1.01.24-.16.62.04.77.39" fill="#f3abb4"/>
    <path d="m79.8 17.03-.06.27-1.07-.29c-.8-.34-1.74.5-2.5-.32-.39-.43-.41-.83.23-.93.63-.1.88-.34.76-.93l.97-.3c1.12.2 2.23-.5 3.36.07-.66.3-1.28.63-1.74 1.2-.36.44-.49.81.05 1.23" fill="#ef8b9c"/>
    <path d="M76.17 16.69c.8.4 1.73-.37 2.5.32-.84.2-1.68.44-2.58.28a2.5 2.5 0 0 0-1.2-.2c-.4.05-.9.41-1.2-.2-.1-.2.05-.42.2-.4.54.09.96-.81 1.55-.11.2.23.46.27.73.3" fill="#ec7189"/>
    <path d="M70.27 18.49a3.2 3.2 0 0 1-2.14.63c-.36-.7.21-.62.63-.7.54-.11.99-.57 1.62-.39zM64.78 20.22q-.14-.08-.32-.13c.26-.56.99-.57 1.35-1 .57.28 1.25-.6 1.77.2-.92.35-1.97.35-2.8.93M70.38 18.03c.86-.56 1.66-1.3 2.94-.62q-1.47.3-2.94.62" fill="#ec6f88"/>
    <path d="M36.94 61.4c.3-.64.51-1.21-.65-1.28-.33-.01-.65-.3-.97-.46l6.56-4.58c.62.75.07 1.1-.56 1.15-.65.06-1.1.39-1.23.82-.21.66.74.29.93.7s1.04.16.98.89c-.02.21.35.37.51.18.65-.76.98.47 1.53.23-.57 1.42-1.15 2.83-2.53 3.74l-.13-.13c-.24-.47-.66-.4-1.07-.34-.8.1-1.46-.1-1.9-.93 0 .48.75.7.2 1.13-1.45.22-1.65.1-1.67-1.11M41.9 55.06l1.29-.77c.15.13.73.07.45.35-.32.33-.3.8-.64 1.08-.44-.12-.59-.68-1.1-.66" fill="#ed7a8f"/>
    <path d="M36.94 61.4c.16 1.07.96 1.05 1.79.97 1-.58 1.82.4 2.76.37l.02.05c-.58.79-1.4 1.32-2.21 1.87-.83.9-1.52.3-2.2-.25-.54-.5-1.07-.98-1.84-1.1-.36-.06-.6-.27-.45-.65l.13-.12.51-.1c-.36-1.4.79-.94 1.49-1.03" fill="#ec748c"/>
    <path d="M25.96 61.73c2.38.83 4.48-.38 6.71-.55.83.07 1.43.76 2.32.75.33 0 .08.4-.05.61-.5.14-.99.05-1.48-.1 1.6.52 1.73.79 1 2.14.2.32 0 .54-.17.77l-.07.23c-2.5-.05-4.96-.33-7.33-1.2-.64-.23-1.33-.47-1.58-1.2.18-.5.22-1.05.66-1.45" fill="#ef8f9e"/>
    <path d="M25.31 63.18a10 10 0 0 0 3.83 1.45c1.18.25 2.27.82 3.53.21.4-.2.9.72 1.55.74.04.68-.91.76-.92 1.41-2.18.37-4.04-.64-5.95-1.44-.05-.58-.09-.6-1-.53-.46-.15-1.04-.04-1.34-.56.49.05.72-.13.4-.55-.22-.27-.39-.46-.1-.73" fill="#ee8194"/>
    <path d="M34.46 64.58c-.2-.2-.11-.37 0-.58.36-.63.44-1.14-.64-1.03-.2.02-.43-.17-.64-.18-.37-.01-.7-.08-.57-.5.1-.32.34-.46.76-.27.5.22 1.05.35 1.58.52-.06.4.12.48.54.52.83.08 1.46.48 1.6 1.34-.86.22-1.78-.15-2.63.18" fill="#ee8497"/>
    <path d="M34.3 65.35c-.27-.33.19-.5.16-.77.3.2.56.47.99.4.28-.03.74-.18.7.32-.02.37-.44.35-.77.3z" fill="#ee8497"/>
    <path d="M34.44 42.73c.72-.55 2-.63 1.84-1.93 1.92.05 2.82-1.47 4.12-2.35.54-.36.9-1 1.74-.7.59.57 1.18 1.15.88 2.04-.12.35 0 .42.36.46.91.1.93.69.78 1.34-1.35 1.58-2.7 3.12-5.06 3.46-2.13.31-4.2-.65-4.66-2.32" fill="#ed788e"/>
    <path d="M44.16 41.59c-.33-.37 0-1.54-1.22-.9-.28.14-.77-.36-.59-.5 1.08-.88-.07-1.57-.2-2.34-.22-.58.2-.94.55-1.22 1.22-.92 2.51-1.74 4.03-2.2.6.52 1.77.57 1.59 1.73-1.64 1.62-2.63 3.67-3.89 5.55z" fill="#ee8296"/>
    <path d="M33.34 36.3c.25.23.26.65.7.71l-.06.25c-.7-.13-.68.59-1.07.83-.17-.67.24-1.2.43-1.78" fill="#ec7189"/>
    <path d="M25.96 61.73c.02.59.15 1.22-.64 1.46-.28-.49-1.16-.13-1.26-.84.57-.38 1.11-.82 1.9-.62" fill="#ec768d"/>
    <path d="M46.73 34.43c-1.34 1.35-3.64 1.6-4.58 3.42-1.56.43-2.39 1.78-3.67 2.57-.71.45-1.25 1.17-2.2.38-.34-.15-.63-.34-.66-.73l.36-.2c.97.4 1.62.08 2.42-.53q2.94-2.27 6.06-4.36c2.1-1.38 3.63-3.46 4.84-5.67.38-.7.63-1.57 1.66-1.72-.26 1.43-1.18 2.57-1.87 3.81l-.44.78c-.61.77-1.54 1.3-1.92 2.25" fill="#eb6b86"/>
    <path d="M26.35 65.02c.54-.6 1.05-.31 1.4.19.27.38-.14.33-.4.34z" fill="#ef8f9e"/>
    <path d="M71.35 48.03c.57-.43.98-.55 1.42-.22.15.1.23.32.04.44-.46.28-.87.02-1.46-.22" fill="#ed7f93"/>
    <path d="M41.49 62.74c-1 .55-1.8-.69-2.76-.37-.11-.3-.41-.34-.66-.46-.28-.13-.29-.34-.08-.51.18-.14.49-.45.66-.1.5 1.05 1.34.81 2.11.6 1.12-.31.9.25.73.84" fill="#ee8497"/>
  </g>
  <defs>
    <clipPath id="a">
      <path fill="#fff" d="m47 0 45.89 18.65-25.85 63.6-45.89-18.64z"/>
    </clipPath>
  </defs>
</svg>
