<?xml version="1.0" encoding="utf-8"?>
<!-- Generator: Adobe Illustrator 15.1.0, SVG Export Plug-In . SVG Version: 6.00 Build 0)  -->
<!DOCTYPE svg PUBLIC "-//W3C//DTD SVG 1.1//EN" "http://www.w3.org/Graphics/SVG/1.1/DTD/svg11.dtd">
<svg version="1.1" xmlns="http://www.w3.org/2000/svg" xmlns:xlink="http://www.w3.org/1999/xlink" x="0px" y="0px" width="40px"
	 height="40px" viewBox="0 0 40 40" enable-background="new 0 0 40 40" xml:space="preserve">
<g id="arrow_x5F_gray2">
	<path id="icons_arriw.svg_3_" fill="#666666" d="M10,35l-5,5l-1.5-1.5L7,35l-3.5-3.5L5,30L10,35z"/>
	<path id="icons_arriw.svg_7_" fill="#666666" d="M30,35l5-5l1.5,1.5L33,35l3.5,3.5L35,40L30,35z"/>
</g>
<g id="arrow_x5F_gray2_x5F_l">
</g>
<g id="arrow_x5F_white">
	<path id="icons_arriw.svg_2_" fill="#FFFFFF" d="M10,25l-5,5l-1.5-1.5L7,25l-3.5-3.5L5,20L10,25z"/>
</g>
<g id="arrow_x5F_gray">
	<path id="icons_arriw.svg_1_" fill="#CCCCCC" d="M10,15l-5,5l-1.5-1.5L7,15l-3.5-3.5L5,10L10,15z"/>
</g>
<g id="pagetop_1_">
	<g id="pagetop">
		<path id="pagetop.svg" fill="#FFFFFF" d="M10,9.5v-2h10v2H10z M15,0.5l5,5H10L15,0.5z"/>
	</g>
</g>
<g id="arrow_x5F_key">
	<path id="icons_arriw.svg" fill="#D13155" d="M10,5l-5,5L3.5,8.5L7,5L3.5,1.5L5,0L10,5z"/>
	<path id="icons_arriw.svg_4_" fill="#D13155" d="M30,5l5-5l1.5,1.5L33,5l3.5,3.5L35,10L30,5z"/>
</g>
<g id="arrow_x5F_key_x5F_l">
</g>
<g id="arrow_x5F_v2_x5F_key">
	<g>
		<path id="icons_arriw.svg_5_" fill="#D13155" d="M26.5,5l-5,5L20,8.5L23.5,5L20,1.5L21.5,0L26.5,5z"/>
		<rect x="28" fill="#D13155" width="2" height="10"/>
	</g>
</g>
<g id="arrow_x5F_v2_x5F_gray2">
	<g>
		<path id="icons_arriw.svg_6_" fill="#666666" d="M26.5,35l-5,5L20,38.5l3.5-3.5L20,31.5l1.5-1.5L26.5,35z"/>
		<rect x="28" y="30" fill="#666666" width="2" height="10"/>
	</g>
</g>
</svg>
